<?xml version="1.0" encoding="iso-8859-1"?>
<!-- Uploaded to: SVG Repo, www.svgrepo.com, Generator: SVG Repo Mixer Tools -->
<svg height="800px" width="800px" version="1.1" id="Layer_1" xmlns="http://www.w3.org/2000/svg" xmlns:xlink="http://www.w3.org/1999/xlink" 
	 viewBox="0 0 512 512" xml:space="preserve">
<path style="fill:#93E6FF;" d="M186.787,52.001c5.053-5.416,13.657-5.416,18.71,0c34.57,37.054,153.117,172.641,153.117,289.511
	c0,89.73-72.741,162.472-162.472,162.472S33.67,431.242,33.67,341.511C33.67,224.642,152.217,89.055,186.787,52.001z"/>
<g>
	<path style="fill:#59D8FF;" d="M281.653,461.228c-89.73,0-162.472-72.741-162.472-162.472c0-80.265,55.903-169.316,102.13-229.255
		c-6.235-7.104-11.61-12.99-15.774-17.455c-5.071-5.436-13.68-5.479-18.752-0.044C152.215,89.058,33.67,224.644,33.67,341.511
		c0,89.73,72.741,162.472,162.472,162.472c43.551,0,83.009-17.233,112.181-45.13C299.626,460.293,290.758,461.228,281.653,461.228z"
		/>
	<path style="fill:#59D8FF;" d="M358.614,341.511c0-82.697-59.341-174.721-106.298-234.622
		c-21.919,38.614-39.071,81.971-39.071,123.457c0,78.932,63.269,143.235,141.741,145.186
		C357.326,364.555,358.614,353.188,358.614,341.511z"/>
</g>
<path style="fill:#D4F5FF;" d="M349.148,18.143c5.072-5.595,13.859-5.595,18.931,0c28.29,31.199,110.251,128.788,110.251,212.203
	c0,66.117-53.599,119.716-119.716,119.716s-119.716-53.599-119.716-119.716C238.898,146.931,320.858,49.342,349.148,18.143z"/>
<path style="fill:#BAEFFF;" d="M435.574,307.307c-66.117,0-119.716-53.599-119.716-119.716c0-53.004,33.091-111.709,64.479-155.489
	c-4.697-5.505-8.86-10.2-12.253-13.945c-5.085-5.612-13.856-5.617-18.942-0.006c-28.296,31.206-110.245,128.787-110.245,212.196
	c0,66.117,53.599,119.716,119.716,119.716c37.34,0,70.672-17.107,92.626-43.896C446.101,306.84,440.897,307.307,435.574,307.307z"/>
<path d="M486.347,230.347c0-43.479-20.623-95.141-61.296-153.551C395.077,33.75,365.567,3.651,364.325,2.391
	C362.818,0.862,360.76,0,358.614,0s-4.204,0.862-5.711,2.39c-1.242,1.26-30.752,31.36-60.726,74.405
	c-8.962,12.869-16.946,25.41-23.955,37.609c-34.787-46.084-66.08-77.52-66.411-77.852c-1.503-1.503-3.542-2.347-5.668-2.347
	s-4.165,0.844-5.668,2.348c-0.412,0.41-41.576,41.775-82.123,99.393c-54.874,77.978-82.697,147.14-82.697,205.565
	c0,94.007,76.48,170.489,170.489,170.489c88.29,0,161.442-67.119,169.705-154.13C432.926,354.107,486.347,298.351,486.347,230.347z
	 M196.142,495.967c-85.167,0-154.455-69.288-154.455-154.455c0-68.511,43.302-144.469,79.627-196.128
	c30.982-44.06,62.314-78.409,74.828-91.618c11.011,11.62,36.584,39.599,63.624,76.105c-19.192,37.028-28.885,70.675-28.885,100.476
	c0,67.451,52.556,122.852,118.868,127.421C341.608,435.896,275.647,495.967,196.142,495.967z M358.614,342.046
	c-61.592,0-111.699-50.108-111.699-111.699c0-83.897,88.161-185.121,111.699-210.645c23.538,25.524,111.699,126.747,111.699,210.645
	C470.313,291.938,420.206,342.046,358.614,342.046z"/>
<path d="M319.762,376.712c-4.17-1.478-8.755,0.703-10.235,4.877c-14.039,39.593-48.267,69.388-89.328,77.757
	c-4.339,0.884-7.139,5.118-6.255,9.456c0.775,3.798,4.115,6.418,7.847,6.418c0.53,0,1.069-0.053,1.61-0.164
	c46.54-9.485,85.332-43.247,101.238-88.109C326.118,382.774,323.935,378.192,319.762,376.712z"/>
<path d="M188.121,461.498c-5.378-0.356-10.772-1.08-16.031-2.151c-4.338-0.884-8.571,1.915-9.456,6.254
	c-0.884,4.339,1.917,8.571,6.255,9.455c5.964,1.215,12.08,2.036,18.175,2.439c0.18,0.012,0.358,0.018,0.537,0.018
	c4.187,0,7.711-3.25,7.992-7.488C195.883,465.608,192.539,461.79,188.121,461.498z"/>
<path d="M444.125,222.33c-4.427,0-8.017,3.589-8.017,8.017c0,42.731-34.764,77.495-77.495,77.495c-4.427,0-8.017,3.589-8.017,8.017
	c0,4.427,3.589,8.017,8.017,8.017c51.572,0,93.528-41.956,93.528-93.528C452.142,225.919,448.553,222.33,444.125,222.33z"/>
</svg>