<?xml version="1.0" encoding="utf-8"?>
<!-- Uploaded to: SVG Repo, www.svgrepo.com, Generator: SVG Repo Mixer Tools -->
<svg width="800px" height="800px" viewBox="0 0 128 128" xmlns="http://www.w3.org/2000/svg" xmlns:xlink="http://www.w3.org/1999/xlink" aria-hidden="true" role="img" class="iconify iconify--noto" preserveAspectRatio="xMidYMid meet">
<radialGradient id="IconifyId17ecdb2904d178eab20599" cx="88.195" cy="51.501" r="56.382" gradientTransform="matrix(0 -1 1.8259 0 -5.84 139.696)" gradientUnits="userSpaceOnUse">
<stop offset=".158" stop-color="#febc45">
</stop>
<stop offset=".201" stop-color="#f8ae44">
</stop>
<stop offset=".328" stop-color="#e98b40">
</stop>
<stop offset=".432" stop-color="#e0763e">
</stop>
<stop offset=".5" stop-color="#dd6e3d">
</stop>
<stop offset=".76" stop-color="#c05e5d">
</stop>
<stop offset=".99" stop-color="#a95e75">
</stop>
</radialGradient>
<path d="M116.62 124.26H11.32c-4.15 0-7.52-3.37-7.52-7.52V11.44c0-4.15 3.37-7.52 7.52-7.52h105.3c4.15 0 7.52 3.37 7.52 7.52v105.3c.01 4.15-3.36 7.52-7.52 7.52z" fill="url(#IconifyId17ecdb2904d178eab20599)">
</path>
<radialGradient id="IconifyId17ecdb2904d178eab20600" cx="25.529" cy="113.093" r="140.58" gradientUnits="userSpaceOnUse">
<stop offset=".817" stop-color="#dd6e3d" stop-opacity="0">
</stop>
<stop offset=".936" stop-color="#b86365" stop-opacity=".651">
</stop>
<stop offset="1" stop-color="#a95e75">
</stop>
</radialGradient>
<path d="M116.62 124.26H11.32c-4.15 0-7.52-3.37-7.52-7.52V11.44c0-4.15 3.37-7.52 7.52-7.52h105.3c4.15 0 7.52 3.37 7.52 7.52v105.3c.01 4.15-3.36 7.52-7.52 7.52z" fill="url(#IconifyId17ecdb2904d178eab20600)">
</path>
<radialGradient id="IconifyId17ecdb2904d178eab20601" cx="87.87" cy="113.71" r="112.193" gradientUnits="userSpaceOnUse">
<stop offset=".411" stop-color="#fd960c">
</stop>
<stop offset=".61" stop-color="#f2811b" stop-opacity=".662">
</stop>
<stop offset=".833" stop-color="#ea7028" stop-opacity=".283">
</stop>
<stop offset="1" stop-color="#e76a2c" stop-opacity="0">
</stop>
</radialGradient>
<path d="M116.62 124.26H11.32c-4.15 0-7.52-3.37-7.52-7.52V11.44c0-4.15 3.37-7.52 7.52-7.52h105.3c4.15 0 7.52 3.37 7.52 7.52v105.3c.01 4.15-3.36 7.52-7.52 7.52z" fill="url(#IconifyId17ecdb2904d178eab20601)">
</path>
<circle cx="91.87" cy="49.17" r="13.26" fill="#fef7b2">
</circle>
<path fill="#d17757" d="M121.3 62.39h-19v21.86H60.19V18.84H28.65v65.41h-4.48V49.13H12.34v42.65h9.5v25.44h97.13v-11.11h2.33z">
</path>
<path fill="#3f737b" d="M32.41 25.13h2.37v7.59h-2.37z">
</path>
<path fill="#3f737b" d="M37.46 25.13h2.47v7.59h-2.47z">
</path>
<path fill="#3f737b" d="M45.27 25.13h-2.42v7.59l2.36-.02z">
</path>
<g fill="#ffe066">
<path d="M50.44 25.13l-2.6.01l.07 7.58h2.51z">
</path>
<path d="M32.41 25.13h2.37v7.59h-2.37z">
</path>
<path d="M37.46 25.13h2.47v7.59h-2.47z">
</path>
<path d="M45.31 25.13h-2.46v7.59l2.43-.02z">
</path>
<path d="M50.44 37.13l-2.6.01l.07 7.58h2.51z">
</path>
<path d="M32.41 37.13h2.37v7.59h-2.37z">
</path>
<path d="M37.46 37.13h2.47v7.59h-2.47z">
</path>
<path d="M45.31 37.13h-2.46v7.59l2.43-.02z">
</path>
<path d="M32.41 49.13h2.37v7.59h-2.37z">
</path>
<path d="M37.46 49.13h2.47v7.59h-2.47z">
</path>
<path d="M45.31 49.13h-2.46v7.59l2.43-.02z">
</path>
<path d="M53.36 25.13l-.01 7.59h2.56v-7.59z">
</path>
</g>
<path fill="#ffb65a" d="M105.55 81.2h2.88v3.94h-2.88z">
</path>
<path fill="#ffb65a" d="M111.3 81.2h2.88v3.94h-2.88z">
</path>
<path fill="#ffc55c" d="M105.55 73.83h2.88v3.94h-2.88z">
</path>
<path fill="#ffc55c" d="M111.3 73.83h2.88v3.94h-2.88z">
</path>
<path fill="#ffd360" d="M105.55 66.83h2.88v3.94h-2.88z">
</path>
<path fill="#ffd360" d="M111.3 66.83h2.88v3.94h-2.88z">
</path>
<radialGradient id="IconifyId17ecdb2904d178eab20602" cx="56.989" cy="23.279" r="100.394" gradientUnits="userSpaceOnUse">
<stop offset=".51" stop-color="#911f4e">
</stop>
<stop offset=".934" stop-color="#6d0c36">
</stop>
</radialGradient>
<path d="M115 49.4c-.36.73 0 42.7 0 42.7H99.13v-24h-5.11v-7.67h-4.53v-6.51h-8.16v6.84h-5.19v7.17h-5.36v34.95h-5.04v-39h2.35v-7.44h-2.35V41.03h-2.65l-3.61-11.16h-7.11L48.8 41.03h-2.79v15.41h-2.48v7.44h2.48v39h-7.18V67.83H17.19V28.47s-13.35-.09-13.39-.05v88.32c0 4.15 3.37 7.52 7.52 7.52h105.3c4.15 0 7.52-3.37 7.52-7.52V49.4H115z" fill="url(#IconifyId17ecdb2904d178eab20602)">
</path>
<path fill="#fc7143" d="M5.71 116.21h29.97v2.35H5.71z">
</path>
<path fill="#fc7444" d="M5.71 107.86h29.97v2.35H5.71z">
</path>
<path fill="#fc7c47" d="M5.71 99.21h29.97v2.35H5.71z">
</path>
<path fill="#fd894a" d="M5.71 90.86h29.97v2.35H5.71z">
</path>
<path fill="#fda152" d="M5.71 81.21h29.97v2.35H5.71z">
</path>
<path fill="#fcb95a" d="M5.71 72.86h29.97v2.35H5.71z">
</path>
<g fill="#fedc61">
<path d="M5.71 63.32h1.76v3.7H5.71z">
</path>
<path d="M11.71 63.32h1.76v3.7h-1.76z">
</path>
<path d="M5.71 55.89h1.76v3.7H5.71z">
</path>
<path d="M11.71 55.89h1.76v3.7h-1.76z">
</path>
<path d="M5.71 48.46h1.76v3.7H5.71z">
</path>
<path d="M11.71 48.46h1.76v3.7h-1.76z">
</path>
<path d="M5.71 41.03h1.76v3.7H5.71z">
</path>
<path d="M11.71 41.03h1.76v3.7h-1.76z">
</path>
<path d="M5.71 33.59h1.76v3.7H5.71z">
</path>
<path d="M11.71 33.59h1.76v3.7h-1.76z">
</path>
</g>
<g fill="#fece60">
<path d="M49.8 64.51h2.27v4.76H49.8z">
</path>
<path d="M55.18 64.51h2.27v4.76h-2.27z">
</path>
<path d="M60.36 64.51h2.27v4.76h-2.27z">
</path>
</g>
<path fill="#fe7a47" d="M49.8 97.7h2.27v4.76H49.8z">
</path>
<path fill="#fe7a47" d="M55.18 97.7h2.27v4.76h-2.27z">
</path>
<path fill="#fe7a47" d="M60.36 97.7h2.27v4.76h-2.27z">
</path>
<g fill="#fcb757">
<path d="M49.8 73.51h2.27v4.76H49.8z">
</path>
<path d="M55.18 73.51h2.27v4.76h-2.27z">
</path>
<path d="M60.36 73.51h2.27v4.76h-2.27z">
</path>
</g>
<g fill="#fe9c51">
<path d="M49.8 82.51h2.27v4.76H49.8z">
</path>
<path d="M55.18 82.51h2.27v4.76h-2.27z">
</path>
<path d="M60.36 82.51h2.27v4.76h-2.27z">
</path>
</g>
<path d="M54.01 53.96h4.66v-6.92s.17-2.6-2.35-2.66c-2.37-.06-2.4 2.6-2.4 2.6s.15 6.98.09 6.98z" fill="#fdcb61">
</path>
<path fill="#ffcf62" d="M79.85 64.16h2.27v9.69h-2.27z">
</path>
<path fill="#ffcf62" d="M88.36 64.16h2.27v9.69h-2.27z">
</path>
<path fill="#ffcf62" d="M84.15 64.16h2.27v9.69h-2.27z">
</path>
<g fill="#feb359">
<path d="M76.37 77.58h2.27v3.09h-2.27z">
</path>
<path d="M84.19 77.58h2.27v3.09h-2.27z">
</path>
<path d="M92.01 77.58h2.27v3.09h-2.27z">
</path>
</g>
<g fill="#ff9a4f">
<path d="M76.37 87.58h2.27v3.09h-2.27z">
</path>
<path d="M84.19 87.58h2.27v3.09h-2.27z">
</path>
<path d="M92.01 87.58h2.27v3.09h-2.27z">
</path>
</g>
<g fill="#ff844b">
<path d="M76.37 97.03h2.27v3.09h-2.27z">
</path>
<path d="M84.19 97.03h2.27v3.09h-2.27z">
</path>
<path d="M92.01 97.03h2.27v3.09h-2.27z">
</path>
</g>
<g fill="#ff7942">
<path d="M76.37 107.03h2.27v3.09h-2.27z">
</path>
<path d="M84.19 107.03h2.27v3.09h-2.27z">
</path>
<path d="M92.01 107.03h2.27v3.09h-2.27z">
</path>
</g>
<g fill="#fc7544">
<path d="M76.37 116.5h2.27v3.09h-2.27z">
</path>
<path d="M84.19 116.5h2.27v3.09h-2.27z">
</path>
<path d="M92.01 116.5h2.27v3.09h-2.27z">
</path>
</g>
<g>
<path fill="#fff6b2" d="M23.11 49.173l2-.006l.06 18.65l-2 .006z">
</path>
</g>
<g>
<path fill="#fff6b2" d="M16.14 28.462l2-.003l.06 39.39l-2 .003z">
</path>
</g>
<g>
<path fill="#fff6b2" d="M102.304 63.352l.006-2l11.86.035l-.006 2z">
</path>
</g>
<g>
<path fill="#fff6b2" d="M99.13 93.11l-.01-2L114 91.1V48.4l10.16.01l-.01 2l-8.15-.01v42.7z">
</path>
</g>
<g>
<path fill="#fff6b2" d="M94.02 67.1h5.11v2h-5.11z">
</path>
</g>
<g>
<path fill="#fff6b2" d="M76.12 59.76h5.19v2h-5.19z">
</path>
</g>
<g>
<path fill="#fff6b2" d="M70.77 66.93h5.36v2h-5.36z">
</path>
</g>
<g>
<path fill="#fff6b2" d="M67.72 102.88h-2v-40h2.35v-5.44h-2.35V42.03h-2.38l-3.88-12l.03-11.18h2l-.03 10.86l.25.74l3.09 9.58h2.92v15.41h2.35v9.44h-2.35z">
</path>
</g>
<radialGradient id="IconifyId17ecdb2904d178eab20603" cx="91.818" cy="49.529" r="22.854" gradientTransform="matrix(.0364 -1.3108 1.1462 .0376 31.606 168.045)" gradientUnits="userSpaceOnUse">
<stop offset=".198" stop-color="#fff6b2">
</stop>
<stop offset=".767" stop-color="#fff6b2" stop-opacity="0">
</stop>
</radialGradient>
<ellipse cx="92.29" cy="49.46" rx="28.37" ry="30.07" opacity=".63" fill="url(#IconifyId17ecdb2904d178eab20603)">
</ellipse>
</svg>