<?xml version="1.0" encoding="utf-8"?>
<!-- Uploaded to: SVG Repo, www.svgrepo.com, Generator: SVG Repo Mixer Tools -->
<svg width="800px" height="800px" viewBox="0 0 1024 1024" class="icon"  version="1.1" xmlns="http://www.w3.org/2000/svg"><path d="M409.209 262.295v344.729c-54.508 33.715-88.16 93.574-88.16 162.025C321.049 874.508 406.684 960 512.918 960c106.204 0 190.033-85.492 190.033-190.951 0-67.562-35.431-126.789-88.762-160.728v-440.11C614.189 110.662 568.287 64 511.685 64c-56.603 0-102.476 46.662-102.476 104.211V262.295z" fill="#FCB814" /><path d="M614.187 608.322V168.209c0-57.546-45.9-104.209-102.502-104.209-7.572 0-14.929 0.894-22.033 2.479 46.005 10.261 80.47 51.883 80.47 101.73v440.112c53.333 33.939 88.764 93.166 88.764 160.728 0 98.043-72.488 178.727-168.016 189.602 7.244 0.823 14.578 1.348 22.049 1.348 106.204 0 190.033-85.492 190.033-190.951-0.001-67.561-35.432-126.787-88.765-160.726z" fill="#030504" /><path d="M553.843 648.47V485.08c0-23.938-18.432-29.386-41.083-29.386-22.666 0-42.605 6.968-42.605 30.906v161.87c-43.886 16.848-75.092 59.274-75.092 109.091 0 64.582 52.355 116.937 116.937 116.937s116.937-52.355 116.937-116.937c0-49.818-31.208-92.243-75.094-109.091z" fill="#FF3B30" /><path d="M553.843 648.47V485.08c0-23.938-18.431-29.386-41.083-29.386-4.873 0-9.563 0.404-14.013 1.151 15.051 2.558 25.72 10.044 25.72 28.234v163.39c43.886 16.848 75.092 59.274 75.092 109.091 0 59.596-44.615 108.676-102.247 115.917 4.822 0.606 9.702 1.018 14.688 1.018 64.582 0 116.937-52.353 116.937-116.936 0-49.816-31.208-92.241-75.094-109.089z" fill="#030504" /><path d="M467.312 788.814m-25.705 0a25.705 25.705 0 1 0 51.41 0 25.705 25.705 0 1 0-51.41 0Z" fill="#FFFFFF" /><path d="M511.582 629.319c-8.246 0-14.933-6.687-14.933-14.933V179.241c0-8.248 6.687-14.933 14.933-14.933 8.248 0 14.933 6.686 14.933 14.933v435.146c0 8.245-6.686 14.932-14.933 14.932z" fill="#FFFFFF" /></svg>