<?xml version="1.0" encoding="UTF-8"?>
<!DOCTYPE svg PUBLIC "-//W3C//DTD SVG 1.1//EN" "http://www.w3.org/Graphics/SVG/1.1/DTD/svg11.dtd">
<svg version="1.1" xmlns="http://www.w3.org/2000/svg" xmlns:xlink="http://www.w3.org/1999/xlink" x="0" y="0" width="302" height="490" viewBox="0, 0, 302, 490">
  <g id="Layer_1">
    <path d="M22.986,171.519 C23.839,171.224 24.692,170.967 25.545,170.734 C28.312,169.993 31.084,169.441 33.862,168.957 C35.146,168.734 36.43,168.53 37.715,168.335 L37.768,161.784 C37.792,161.27 37.869,160.724 37.919,160.199 L38.163,158.671 C38.921,154.641 40.127,150.763 41.564,146.981 C43.001,143.199 44.677,139.517 46.542,135.94 C54.021,121.627 64.579,109.01 77.156,98.993 C82.942,94.419 89.145,90.405 95.642,86.953 C57.416,102.676 29.449,134.102 22.986,171.519 M118.6,77.368 C118.735,77.612 118.93,77.828 119.209,77.95 C119.373,78.022 119.559,78.063 119.731,78.063 C120.246,78.063 120.727,77.766 120.943,77.273 C121.066,76.997 121.066,76.704 121.001,76.43 C120.909,76.042 120.667,75.698 120.276,75.53 C119.6,75.232 118.819,75.54 118.533,76.206 C118.357,76.598 118.408,77.019 118.6,77.368 M124.364,85.345 C122.146,87.211 120.015,89.179 118.027,91.289 C115.47,94.02 113.061,96.89 110.867,99.921 C108.686,102.959 106.675,106.116 104.833,109.367 C101.204,115.904 98.21,122.786 95.887,129.885 C93.553,136.979 91.799,144.269 90.731,151.644 C90.211,155.334 89.827,159.036 89.873,162.737 L89.883,163.936 C97.693,163.603 105.504,163.364 113.316,163.206 C113.331,161.43 113.356,159.649 113.427,157.857 C113.747,150.519 114.605,143.231 115.857,136.014 C117.111,128.798 118.829,121.66 121.073,114.689 C123.326,107.726 126.174,100.938 129.813,94.583 C131.527,91.64 133.437,88.797 135.548,86.121 C131.382,85.992 127.604,85.76 124.364,85.345 M128.657,79.15 C128.535,79.869 129.017,80.556 129.735,80.69 L129.735,80.679 C129.816,80.699 129.888,80.699 129.96,80.699 C130.597,80.699 131.15,80.249 131.263,79.613 C131.396,78.884 130.914,78.206 130.196,78.084 L130.196,78.073 C129.468,77.95 128.791,78.432 128.657,79.15 M135.798,86.129 C133.704,88.867 131.826,91.771 130.146,94.772 C126.638,101.16 123.925,107.958 121.806,114.92 C119.698,121.889 118.116,129.012 116.994,136.203 C115.878,143.392 115.153,150.651 114.964,157.907 C114.927,159.654 114.933,161.411 114.948,163.173 C122.794,163.024 130.64,162.955 138.486,162.946 L138.493,162.123 C138.333,147.797 138.823,133.421 140.464,119.173 C141.303,112.054 142.396,104.952 144.092,97.98 C145.072,94.025 146.225,90.088 147.691,86.28 C143.498,86.271 139.499,86.239 135.798,86.129 M139.141,80.566 C139.081,81.294 139.624,81.931 140.352,81.992 L140.456,81.992 C141.143,81.992 141.727,81.468 141.779,80.771 C141.83,80.043 141.286,79.407 140.557,79.356 C139.829,79.295 139.193,79.838 139.141,80.566 M147.866,86.28 C146.461,90.122 145.378,94.087 144.465,98.068 C142.9,105.046 141.938,112.145 141.229,119.255 C139.849,133.492 139.616,147.806 140.031,162.105 L140.039,162.945 C143.747,162.944 147.456,162.952 151.164,162.978 C155.314,163.009 159.465,163.064 163.615,163.132 C162.746,137.55 160.15,111.923 159.685,86.253 C156.943,86.279 154.094,86.283 151.164,86.283 C150.053,86.283 148.955,86.282 147.866,86.28 M149.697,81.11 C149.697,81.838 150.283,82.434 151.012,82.444 L151.021,82.444 C151.749,82.444 152.344,81.859 152.344,81.131 C152.355,80.402 151.77,79.808 151.041,79.797 C150.303,79.787 149.708,80.372 149.697,81.11 M159.832,86.253 C160.761,111.924 163.818,137.439 165.155,163.158 C173.013,163.294 180.868,163.5 188.721,163.776 L188.723,163.498 C188.722,162.606 188.771,161.704 188.684,160.83 C188.25,153.779 187.245,146.676 186.043,139.654 C184.825,132.624 183.359,125.633 181.664,118.698 C179.965,111.764 178.039,104.88 175.779,98.105 C174.396,93.997 172.891,89.923 171.18,85.936 C167.717,86.128 163.895,86.214 159.832,86.253 M160.285,80.966 C160.315,81.675 160.899,82.218 161.598,82.218 L161.669,82.218 C162.397,82.177 162.963,81.551 162.921,80.823 C162.88,80.095 162.265,79.53 161.526,79.571 C160.798,79.613 160.244,80.238 160.285,80.966 M170.821,80.115 C170.913,80.781 171.477,81.273 172.134,81.273 C172.195,81.273 172.246,81.264 172.308,81.264 C173.026,81.162 173.539,80.505 173.447,79.777 C173.354,79.048 172.688,78.546 171.96,78.637 C171.241,78.73 170.729,79.397 170.821,80.115 M171.341,85.927 C173.115,89.871 174.69,93.906 176.142,97.979 C178.528,104.726 180.581,111.588 182.409,118.508 C184.233,125.43 185.829,132.413 187.178,139.448 C188.513,146.494 189.647,153.551 190.221,160.765 C190.326,161.672 190.292,162.56 190.31,163.455 L190.313,163.833 C198.143,164.119 205.97,164.479 213.791,164.918 L213.803,163.611 C213.792,162.706 213.871,161.78 213.747,160.902 L213.505,158.237 C213.417,157.348 213.259,156.454 213.14,155.562 C212.089,148.421 210.301,141.371 208.1,134.468 C205.886,127.565 203.224,120.801 200.141,114.232 C199.338,112.605 198.595,110.947 197.744,109.345 L195.175,104.543 C193.338,101.414 191.508,98.275 189.437,95.29 C186.964,91.646 184.302,88.126 181.427,84.785 C178.614,85.353 175.205,85.708 171.341,85.927 M181.921,76.913 C181.402,77.191 181.107,77.766 181.254,78.361 C181.407,78.966 181.941,79.376 182.536,79.376 C182.638,79.376 182.751,79.356 182.854,79.336 C183.563,79.161 183.992,78.442 183.828,77.735 C183.811,77.661 183.764,77.604 183.734,77.537 C183.481,76.957 182.862,76.614 182.228,76.771 C182.113,76.798 182.021,76.86 181.921,76.913 M205.331,86.405 C209.055,88.593 212.711,90.897 216.267,93.36 C224.082,98.881 231.486,105.012 238.203,111.858 C244.912,118.701 250.946,126.258 255.857,134.537 L257.683,137.653 L259.31,140.881 C260.463,143.001 261.29,145.278 262.257,147.49 C263.925,152.023 265.311,156.698 265.852,161.576 L265.855,161.609 L265.856,161.665 L265.924,169.822 C266.698,169.95 267.473,170.072 268.244,170.21 C270.995,170.707 273.736,171.27 276.433,172.01 C277.501,172.308 278.557,172.655 279.592,173.055 C273.569,134.521 244.775,102.147 205.331,86.405 M284.198,423.534 C284.014,422.448 282.999,421.719 281.921,421.895 C280.835,422.08 280.106,423.094 280.281,424.173 C280.435,425.146 281.286,425.844 282.239,425.844 C282.343,425.844 282.445,425.834 282.558,425.814 C283.636,425.64 284.374,424.613 284.198,423.534 M263.252,426.572 C263.128,425.484 262.133,424.705 261.046,424.837 C259.958,424.972 259.189,425.966 259.322,427.054 C259.436,428.059 260.297,428.787 261.281,428.787 C261.363,428.787 261.446,428.787 261.528,428.776 C262.614,428.645 263.384,427.66 263.252,426.572 M242.221,428.859 C242.119,427.762 241.154,426.963 240.065,427.064 C238.969,427.155 238.168,428.121 238.271,429.219 C238.363,430.245 239.225,431.024 240.241,431.024 C240.303,431.024 240.364,431.014 240.426,431.014 C241.514,430.911 242.323,429.947 242.221,428.859 M221.129,430.542 C221.057,429.453 220.113,428.623 219.016,428.694 C217.929,428.767 217.097,429.711 217.169,430.808 C217.23,431.854 218.113,432.656 219.149,432.656 L219.272,432.656 C220.37,432.584 221.2,431.639 221.129,430.542 M200.007,431.722 C199.955,430.623 199.032,429.782 197.934,429.825 C196.847,429.875 195.996,430.799 196.036,431.896 C196.088,432.984 197.012,433.835 198.108,433.795 C199.196,433.742 200.047,432.819 200.007,431.722 M178.853,432.449 C178.833,431.354 177.92,430.48 176.832,430.512 C175.734,430.53 174.862,431.446 174.893,432.532 C174.914,433.62 175.796,434.472 176.873,434.472 L176.914,434.472 C178.012,434.451 178.884,433.539 178.853,432.449 M157.699,432.758 C157.699,431.661 156.807,430.776 155.71,430.776 C154.611,430.787 153.73,431.68 153.73,432.778 C153.739,433.866 154.622,434.749 155.71,434.749 L155.72,434.749 C156.817,434.749 157.699,433.855 157.699,432.758 M136.535,432.686 C136.558,431.589 135.685,430.686 134.587,430.675 C133.489,430.654 132.586,431.527 132.577,432.623 C132.556,433.723 133.439,434.625 134.526,434.635 L134.557,434.635 C135.644,434.635 136.526,433.772 136.535,432.686 M115.393,432.215 C115.423,431.115 114.573,430.203 113.475,430.162 C112.376,430.122 111.464,430.983 111.422,432.081 C111.382,433.169 112.243,434.091 113.341,434.122 L113.414,434.122 C114.47,434.122 115.351,433.282 115.393,432.215 M94.25,431.289 C94.321,430.194 93.48,429.261 92.383,429.196 C91.295,429.137 90.352,429.968 90.29,431.065 C90.229,432.151 91.059,433.097 92.157,433.158 L92.269,433.158 C93.316,433.158 94.188,432.348 94.25,431.289 M73.147,429.855 C73.24,428.756 72.429,427.803 71.332,427.71 C70.244,427.616 69.28,428.428 69.188,429.517 C69.095,430.603 69.906,431.568 71.004,431.661 C71.055,431.67 71.117,431.67 71.168,431.67 C72.193,431.67 73.055,430.892 73.147,429.855 M50.353,425.597 C49.266,425.464 48.281,426.243 48.147,427.333 C48.025,428.419 48.794,429.403 49.88,429.537 L49.891,429.537 C49.963,429.546 50.045,429.546 50.118,429.546 C51.112,429.546 51.973,428.808 52.086,427.792 C52.22,426.706 51.441,425.72 50.353,425.597 M29.486,422.685 C28.409,422.509 27.383,423.238 27.209,424.324 C27.035,425.401 27.763,426.417 28.85,426.603 C28.954,426.613 29.066,426.622 29.168,426.622 C30.123,426.622 30.964,425.937 31.128,424.961 C31.303,423.884 30.574,422.858 29.486,422.685 M37.694,170.998 C36.568,171.178 35.444,171.361 34.324,171.562 C31.6,172.053 28.889,172.612 26.26,173.334 C24.964,173.695 23.682,174.103 22.506,174.608 C22.383,175.484 22.271,176.362 22.173,177.243 C22.273,177.289 22.368,177.339 22.471,177.383 C23.655,177.895 24.95,178.307 26.259,178.671 C28.887,179.393 31.599,179.952 34.323,180.443 C35.417,180.638 36.515,180.817 37.614,180.994 L37.694,170.998 z M39.809,170.673 L39.894,181.344 C43.527,181.885 47.18,182.346 50.838,182.759 C54.811,183.2 58.791,183.574 62.777,183.922 L62.909,168.071 C58.88,168.422 54.854,168.799 50.838,169.245 C47.151,169.661 43.47,170.126 39.809,170.673 M88.111,166.318 C86.805,166.392 85.498,166.46 84.192,166.538 C77.739,166.915 71.289,167.364 64.851,167.902 L64.984,184.112 C71.378,184.647 77.784,185.091 84.192,185.466 C85.442,185.541 86.695,185.606 87.946,185.678 L88.111,166.318 z M113.302,165.166 C105.498,165.442 97.697,165.791 89.902,166.218 L90.069,185.797 C97.746,186.218 105.427,186.563 113.11,186.836 L113.269,168.835 C113.287,167.612 113.294,166.389 113.302,165.166 M138.471,164.513 C130.634,164.642 122.799,164.837 114.969,165.106 C114.982,166.348 114.996,167.59 115,168.832 L115.16,186.91 C122.858,187.171 130.562,187.363 138.266,187.49 L138.471,164.513 z M163.61,164.322 C159.461,164.319 155.313,164.326 151.164,164.354 C147.46,164.382 143.756,164.43 140.053,164.487 L140.258,187.522 C143.893,187.578 147.529,187.624 151.164,187.652 C155.242,187.68 159.32,187.687 163.399,187.683 L163.61,164.322 z M188.714,164.578 C180.865,164.42 173.017,164.34 165.169,164.324 L165.379,187.681 C173.089,187.665 180.799,187.584 188.509,187.431 L188.714,164.578 z M213.787,165.371 C205.968,165.027 198.145,164.778 190.32,164.61 L190.479,182.217 L190.523,187.391 C198.219,187.224 205.911,186.976 213.6,186.639 L213.778,166.34 L213.787,165.371 z M215.501,165.447 L215.509,166.282 L215.688,186.546 C216.521,186.508 217.355,186.476 218.189,186.436 C225.025,186.076 231.858,185.637 238.683,185.093 L238.839,166.92 C231.963,166.37 225.078,165.928 218.189,165.566 C217.294,165.522 216.398,165.488 215.501,165.447 M263.874,169.611 C259.802,169.004 255.712,168.517 251.617,168.079 C247.984,167.697 244.345,167.372 240.705,167.07 L240.858,184.918 C244.447,184.619 248.035,184.298 251.617,183.921 C255.676,183.488 259.73,183.003 263.768,182.404 L263.874,169.611 z M279.597,173.089 C278.556,172.693 277.494,172.351 276.419,172.058 C273.722,171.334 270.979,170.788 268.227,170.308 C267.461,170.176 266.692,170.06 265.925,169.937 L266.025,182.046 C266.76,181.929 267.495,181.818 268.227,181.691 C270.979,181.211 273.722,180.666 276.419,179.942 C277.735,179.584 279.042,179.177 280.3,178.649 C280.118,176.783 279.885,174.929 279.597,173.089 M277.421,403.216 C275.323,402.568 272.281,401.827 267.854,401.046 L267.899,406.365 C271.742,405.241 274.889,404.171 277.421,403.216 M151.164,416.427 C154.578,416.427 157.965,416.411 161.335,416.387 L161.533,394.54 C158.098,394.515 154.644,394.499 151.164,394.499 C148.129,394.499 145.114,394.513 142.113,394.531 L142.309,416.396 C145.246,416.414 148.195,416.427 151.164,416.427 M24.906,403.216 C27.736,404.283 31.33,405.494 35.807,406.761 L35.855,400.81 C30.68,401.676 27.214,402.503 24.906,403.216 M21.56,401.486 C24.206,400.394 28.597,399.204 35.877,398.013 L36.326,341.916 C35.505,341.785 34.684,341.659 33.864,341.519 C31.085,341.033 28.313,340.482 25.547,339.74 C24.217,339.378 22.891,338.97 21.56,338.417 L21.56,401.486 z M37.593,183.64 C36.349,183.451 35.105,183.253 33.864,183.039 C31.085,182.554 28.313,182.003 25.547,181.261 C24.33,180.928 23.115,180.555 21.898,180.07 C21.679,182.728 21.56,185.41 21.56,188.114 L21.56,330.536 C22.891,329.984 24.216,329.576 25.545,329.213 C28.312,328.472 31.084,327.921 33.862,327.437 C34.722,327.287 35.584,327.156 36.445,327.021 L37.593,183.64 z M62.757,186.394 C58.69,186.065 54.626,185.708 50.563,185.282 C47.011,184.901 43.461,184.476 39.915,183.975 L41.055,326.339 C44.222,325.908 47.391,325.533 50.562,325.192 C54.245,324.808 57.93,324.479 61.616,324.172 L62.757,186.394 z M87.926,187.971 C86.638,187.914 85.351,187.863 84.063,187.801 C77.709,187.467 71.354,187.065 65.005,186.576 L66.142,323.809 C72.112,323.359 78.088,322.989 84.063,322.675 C84.968,322.63 85.872,322.596 86.776,322.555 L86.957,301.336 C81.459,304.58 78.312,307.397 78.312,307.397 L78.718,302.143 L67.228,307.456 L72.335,297.449 C72.335,297.449 79.192,294.355 87.052,290.315 L87.926,187.971 z M113.094,188.78 C105.425,188.623 97.756,188.39 90.089,188.066 L90.946,288.276 C97.595,284.729 104.279,280.772 107.678,277.627 C109.01,276.396 110.604,274.626 112.359,272.519 L113.094,188.78 z M138.252,189.047 C130.561,189.037 122.868,188.967 115.176,188.822 L115.872,268.137 C123.765,258.002 133.339,244.098 137.8,239.468 L138.252,189.047 z M163.389,188.865 C159.313,188.932 155.239,188.985 151.164,189.016 C147.534,189.04 143.904,189.049 140.273,189.049 L140.699,236.689 C145.439,231.383 150.26,221.192 163.099,221.004 L163.389,188.865 z M188.502,188.226 C180.8,188.496 173.097,188.698 165.39,188.833 L165.682,221.109 C168.353,221.331 171.327,221.944 174.686,223.082 C177.954,223.695 183.062,223.286 183.062,223.286 L174.686,230.64 C174.686,230.64 173.868,240.038 175.094,244.941 C176.084,248.899 179.091,268.931 166.219,280.725 L166.402,300.968 L187.49,300.968 L188.502,188.226 z M213.596,187.09 C205.912,187.519 198.223,187.873 190.531,188.155 L191.544,300.968 L200.979,300.968 C203.899,300.968 206.268,303.336 206.268,306.258 C206.268,309.18 203.899,311.547 200.979,311.547 L191.638,311.547 L191.734,322.363 C198.625,322.621 205.512,322.941 212.395,323.32 L213.596,187.09 z M238.681,185.37 C231.865,185.954 225.04,186.433 218.212,186.831 C217.372,186.882 216.532,186.924 215.691,186.973 L216.896,323.573 C217.334,323.599 217.773,323.62 218.212,323.647 C224.639,324.022 231.063,324.468 237.479,325.005 L238.681,185.37 z M263.767,182.532 C259.737,183.154 255.69,183.662 251.639,184.119 C248.051,184.517 244.456,184.861 240.86,185.182 L242.066,325.401 C245.26,325.693 248.451,326.005 251.639,326.359 C255.284,326.771 258.925,327.23 262.554,327.769 L263.767,182.532 z M280.304,178.676 C279.048,179.209 277.745,179.624 276.433,179.99 C273.736,180.73 270.994,181.294 268.244,181.789 C267.507,181.921 266.767,182.037 266.027,182.161 L267.249,328.522 C267.581,328.58 267.913,328.63 268.244,328.689 C270.995,329.188 273.736,329.748 276.433,330.49 C277.778,330.865 279.115,331.287 280.399,331.839 C280.525,331.895 280.645,331.956 280.769,332.015 L280.769,188.114 C280.769,184.936 280.605,181.789 280.304,178.676 M267.348,340.314 C267.64,340.264 267.935,340.223 268.227,340.173 C270.979,339.692 273.722,339.146 276.419,338.422 C277.766,338.054 279.104,337.641 280.39,337.096 C280.518,337.042 280.642,336.979 280.769,336.92 L280.769,332.039 C280.642,331.982 280.518,331.917 280.39,331.863 C279.104,331.317 277.766,330.904 276.419,330.538 C273.722,329.815 270.979,329.269 268.227,328.79 C267.901,328.731 267.575,328.685 267.25,328.631 L267.348,340.314 z M217.699,414.754 C222.111,414.515 226.371,414.244 230.487,413.955 C232.638,413.659 234.719,413.356 236.723,413.045 L236.856,397.447 C230.788,396.963 224.332,396.533 217.535,396.163 L217.699,414.754 z M192.573,415.807 C199.108,415.605 205.467,415.361 211.586,415.066 L211.756,395.869 C205.527,395.567 199.048,395.318 192.388,395.113 L192.573,415.807 z M142.088,391.792 C145.098,391.771 148.119,391.759 151.164,391.759 C154.653,391.759 158.115,391.774 161.557,391.799 L161.958,347.368 C158.36,347.423 154.763,347.468 151.164,347.495 C148.006,347.517 144.85,347.526 141.691,347.53 L142.088,391.792 z M92.029,415.125 C98.175,415.413 104.546,415.653 111.1,415.849 L111.282,395.072 C104.606,395.27 98.118,395.515 91.865,395.809 L92.029,415.125 z M71.841,413.955 C76.376,414.273 81.096,414.564 85.988,414.824 L86.148,396.093 C79.336,396.454 72.849,396.872 66.75,397.347 L66.882,413.239 C68.489,413.483 70.143,413.721 71.841,413.955 M61.596,326.664 C58.006,326.986 54.417,327.327 50.838,327.726 C47.576,328.093 44.318,328.501 41.076,328.969 L41.164,340.009 C44.378,340.471 47.605,340.873 50.838,341.238 C54.375,341.632 57.919,341.971 61.466,342.288 L61.596,326.664 z M86.757,324.874 C85.902,324.923 85.047,324.967 84.192,325.018 C78.176,325.37 72.165,325.779 66.162,326.269 L66.297,342.706 C72.255,343.189 78.222,343.596 84.192,343.947 C84.993,343.993 85.793,344.034 86.593,344.081 L86.757,324.874 z M91.257,324.621 L91.425,344.355 C98.186,344.718 104.952,345.019 111.72,345.269 L111.91,323.693 C105.021,323.946 98.137,324.253 91.257,324.621 M149.133,300.968 L148.119,289.01 C147.738,289.101 147.342,289.201 146.97,289.283 L145.979,300.968 L149.133,300.968 z M162.281,311.547 L141.369,311.547 L141.458,321.422 C144.693,321.426 147.93,321.436 151.164,321.456 C154.84,321.483 158.516,321.532 162.19,321.589 L162.281,311.547 z M187.292,323.027 C180.395,322.898 173.497,322.826 166.598,322.806 L166.809,346.158 C173.568,346.138 180.328,346.065 187.087,345.939 L187.292,323.027 z M212.391,323.79 C205.51,323.497 198.627,323.273 191.741,323.119 L191.945,345.842 C198.699,345.687 205.452,345.467 212.202,345.181 L212.391,323.79 z M237.478,325.289 C231.054,324.792 224.624,324.384 218.189,324.047 C217.76,324.024 217.329,324.011 216.898,323.988 L217.084,344.964 C217.452,344.946 217.821,344.933 218.189,344.914 C224.57,344.58 230.948,344.176 237.319,343.684 L237.478,325.289 z M192.363,392.368 C199.044,392.573 205.533,392.824 211.779,393.125 L212.198,345.648 C205.452,346.016 198.704,346.329 191.952,346.583 L192.363,392.368 z M141.678,346.025 C144.841,346.07 148.002,346.106 151.164,346.131 C154.766,346.156 158.367,346.163 161.97,346.163 L162.18,322.802 C158.508,322.802 154.836,322.809 151.164,322.833 C147.934,322.857 144.702,322.897 141.472,322.943 L141.678,346.025 z M116.342,321.625 C123.25,321.503 130.159,321.442 137.066,321.427 L137.155,311.547 L116.254,311.547 L116.342,321.625 z M116.552,345.438 C123.314,345.661 130.08,345.828 136.847,345.946 L137.052,323.016 C130.152,323.136 123.254,323.309 116.358,323.537 L116.552,345.438 z M91.842,393.065 C98.11,392.771 104.611,392.524 111.306,392.327 L111.703,347.232 C104.949,347.084 98.196,346.881 91.444,346.605 L91.842,393.065 z M66.728,394.595 C72.841,394.122 79.352,393.705 86.171,393.348 L86.572,346.391 C85.736,346.353 84.9,346.32 84.063,346.28 C78.146,345.971 72.23,345.605 66.317,345.162 L66.728,394.595 z M136.833,347.524 C130.078,347.51 123.323,347.449 116.567,347.33 L116.961,392.176 C123.317,392.017 129.82,391.903 136.436,391.836 L136.833,347.524 z M167.223,391.852 C173.832,391.926 180.327,392.046 186.671,392.208 L187.079,346.756 C180.328,346.986 173.575,347.163 166.82,347.291 L167.223,391.852 z M237.316,343.968 C230.954,344.497 224.585,344.939 218.212,345.312 C217.837,345.334 217.463,345.352 217.087,345.373 L217.511,393.418 C224.318,393.788 230.795,394.217 236.88,394.698 L237.316,343.968 z M262.553,327.906 C258.917,327.387 255.27,326.95 251.617,326.558 C248.437,326.224 245.254,325.931 242.068,325.659 L242.22,343.289 C245.354,343.02 248.487,342.73 251.617,342.401 C255.232,342.014 258.843,341.58 262.442,341.069 L262.553,327.906 z M187.396,311.547 L166.497,311.547 L166.589,321.661 C173.493,321.788 180.397,321.969 187.3,322.205 L187.396,311.547 z M162.535,283.574 C160.132,285.13 157.328,286.446 154.052,287.434 C152.867,287.79 151.744,288.1 150.641,288.391 L149.574,300.968 L162.377,300.968 L162.535,283.574 z M141.275,300.968 L145.373,300.968 L144.426,289.794 C143.301,290.004 142.229,290.172 141.18,290.323 L141.275,300.968 z M116.161,300.968 L137.249,300.968 L137.34,290.775 C129.739,291.48 123.698,290.952 116.079,291.749 L116.161,300.968 z M91.237,322.355 C98.132,322.07 105.029,321.862 111.927,321.713 L112.016,311.547 L101.351,311.547 C98.43,311.547 96.061,309.18 96.061,306.258 C96.061,303.336 98.43,300.968 101.351,300.968 L112.109,300.968 L112.186,292.256 C110.426,292.534 108.572,292.893 106.588,293.358 C100.606,294.763 95.349,296.905 91.038,299.099 L91.237,322.355 z M21.56,335.426 C21.848,335.581 22.154,335.728 22.471,335.863 C23.655,336.374 24.95,336.787 26.259,337.15 C28.887,337.871 31.599,338.431 34.324,338.923 C34.996,339.042 35.672,339.148 36.348,339.261 L36.424,329.689 C35.725,329.807 35.022,329.917 34.324,330.041 C31.6,330.533 28.889,331.091 26.26,331.814 C24.951,332.179 23.657,332.59 22.473,333.101 C22.155,333.236 21.849,333.383 21.56,333.538 L21.56,335.426 z M41.621,397.158 C46.055,396.554 51.305,395.956 57.522,395.377 C58.669,395.27 59.849,395.168 61.029,395.065 L61.446,344.768 C57.816,344.467 54.188,344.142 50.563,343.761 C47.435,343.427 44.309,343.057 41.185,342.634 L41.621,397.158 z M41.711,408.324 C47.083,409.659 53.437,411.011 60.887,412.277 L61.006,397.82 C60.399,397.872 59.775,397.924 59.177,397.977 C52.132,398.615 46.369,399.278 41.643,399.931 L41.711,408.324 z M136.411,394.58 C129.816,394.647 123.329,394.761 116.986,394.919 L117.171,416.012 C123.392,416.167 129.752,416.278 136.216,416.346 L136.411,394.58 z M167.443,416.33 C173.899,416.256 180.25,416.139 186.458,415.98 L186.647,394.951 C180.316,394.786 173.837,394.667 167.246,394.594 L167.443,416.33 z M261.95,400.107 C257,399.397 250.838,398.674 243.152,397.977 C243.001,397.963 242.842,397.951 242.689,397.938 L242.811,412.043 C250.257,410.742 256.574,409.361 261.884,408.006 L261.95,400.107 z M262.441,341.205 C258.85,341.737 255.246,342.191 251.639,342.6 C248.503,342.947 245.363,343.257 242.222,343.544 L242.666,395.188 C243.378,395.251 244.106,395.313 244.806,395.377 C251.626,396.014 257.281,396.671 261.974,397.333 L262.441,341.205 z M280.769,336.945 C280.645,337.002 280.525,337.064 280.399,337.119 C279.115,337.674 277.778,338.094 276.433,338.469 C273.736,339.211 270.994,339.773 268.244,340.269 C267.946,340.322 267.647,340.367 267.349,340.419 L267.831,398.244 C274.296,399.357 278.294,400.464 280.769,401.486 L280.769,336.945 z M263.94,161.715 C263.499,157.076 262.238,152.519 260.688,148.081 C259.777,145.901 259.009,143.659 257.909,141.556 L256.362,138.358 L254.616,135.259 C249.912,127.016 244.061,119.428 237.513,112.522 C230.957,105.612 223.691,99.385 215.99,93.75 C212.078,90.944 208.04,88.321 203.911,85.846 C199.138,84 194.213,82.398 189.156,81.056 C188.938,81.383 188.663,81.689 188.345,81.977 C193.797,85.813 198.979,90.033 203.821,94.628 C210.093,100.537 215.724,107.126 220.702,114.169 C225.682,121.214 230.019,128.73 233.521,136.639 C237.022,144.539 239.699,152.876 240.655,161.593 L240.657,161.615 L240.658,161.665 L240.702,166.803 C244.351,167.129 247.998,167.476 251.639,167.88 C255.727,168.342 259.811,168.854 263.875,169.484 L263.94,161.715 z M215.498,165.014 C216.402,165.066 217.308,165.113 218.212,165.167 C225.094,165.569 231.973,166.053 238.841,166.643 L238.883,161.708 C238.104,153.297 235.624,145.014 232.298,137.165 C228.971,129.287 224.8,121.758 219.975,114.676 C215.147,107.595 209.66,100.941 203.513,94.946 C198.761,90.28 193.658,85.975 188.27,82.046 C186.87,83.264 184.582,84.131 181.597,84.749 C184.513,88.025 187.226,91.485 189.752,95.072 C191.883,98.03 193.775,101.146 195.675,104.256 L198.341,109.03 C199.223,110.626 199.999,112.277 200.833,113.898 C204.048,120.443 206.845,127.196 209.196,134.107 C211.535,141.022 213.464,148.09 214.66,155.327 C214.798,156.236 214.973,157.132 215.08,158.051 L215.38,160.815 C215.521,161.743 215.457,162.642 215.485,163.554 L215.498,165.014 z M89.21,151.413 C90.42,143.957 92.318,136.631 94.795,129.514 C97.261,122.393 100.398,115.505 104.165,108.986 C106.077,105.741 108.157,102.597 110.404,99.578 C112.662,96.567 115.134,93.721 117.75,91.021 C119.731,88.99 121.842,87.095 124.037,85.303 C120.567,84.84 117.744,84.157 115.753,83.154 C112.889,84.791 110.1,86.556 107.412,88.463 C104.294,90.745 101.244,93.126 98.418,95.761 C96.965,97.033 95.624,98.425 94.248,99.776 C93.571,100.464 92.928,101.185 92.268,101.887 C91.604,102.588 90.955,103.301 90.337,104.043 C80.22,115.702 72.748,129.568 68.216,144.258 C67.099,147.936 66.148,151.668 65.507,155.439 C65.176,157.319 64.939,159.232 64.832,161.089 C64.786,162.506 64.81,163.973 64.829,165.435 C71.236,164.939 77.65,164.532 84.063,164.194 C85.42,164.128 86.775,164.075 88.131,164.014 L88.142,162.724 C88.16,158.918 88.619,155.138 89.21,151.413 M39.787,168.038 C43.376,167.529 46.968,167.098 50.562,166.714 C54.682,166.281 58.804,165.92 62.928,165.587 C62.935,164.07 62.932,162.56 63.007,161.001 C63.156,158.996 63.432,157.064 63.803,155.134 C64.525,151.281 65.554,147.509 66.748,143.796 C71.589,128.98 79.373,115.113 89.761,103.534 C90.395,102.797 91.061,102.089 91.74,101.395 C92.418,100.698 93.076,99.984 93.769,99.302 C95.179,97.965 96.549,96.587 98.033,95.332 C100.917,92.729 104.024,90.387 107.191,88.149 C109.879,86.308 112.661,84.607 115.511,83.035 C114.47,82.478 113.686,81.821 113.173,81.056 C108.345,82.337 103.639,83.859 99.068,85.6 C91.462,89.516 84.256,94.186 77.639,99.592 C65.305,109.742 55.06,122.409 47.913,136.64 C46.13,140.198 44.538,143.848 43.187,147.581 C41.837,151.31 40.721,155.135 40.058,158.998 L39.852,160.442 C39.817,160.913 39.753,161.362 39.738,161.849 L39.787,168.038 z M10.378,339.071 C10.412,339.121 10.434,339.18 10.477,339.223 C10.843,339.615 11.407,339.767 11.931,339.722 C12.986,339.641 13.932,338.841 14.339,337.943 C14.742,337.03 14.552,335.949 14.021,335.096 C13.491,334.23 12.623,333.606 11.685,333.306 C9.753,332.685 7.614,333.595 6.461,335.191 C5.872,335.992 5.533,336.945 5.42,337.922 C5.292,338.923 5.492,339.799 5.962,340.681 C6.91,342.393 8.746,343.713 10.743,343.978 C11.74,344.138 12.744,344.024 13.818,343.752 C14.694,343.535 15.515,343.183 16.271,342.725 L16.271,188.114 C16.271,187.026 16.291,185.943 16.324,184.861 C15.705,185.191 15.054,185.458 14.394,185.661 C13.192,186.028 11.806,186.299 10.443,186.099 C7.737,185.748 5.211,184.128 3.909,181.652 C3.589,181.032 3.342,180.363 3.211,179.656 C3.07,178.942 3.089,178.207 3.169,177.536 C3.33,176.154 3.915,174.838 4.785,173.764 C5.661,172.699 6.833,171.858 8.172,171.464 C9.51,171.084 10.956,171.113 12.248,171.616 C13.542,172.112 14.615,173.102 15.222,174.319 C15.833,175.517 15.968,177.076 15.236,178.291 C14.878,178.894 14.386,179.349 13.822,179.689 C13.256,180.031 12.585,180.211 11.929,180.168 C11.281,180.125 10.601,179.851 10.237,179.287 C10.162,179.176 10.123,179.057 10.086,178.939 C9.491,178.868 9.004,178.405 8.963,177.786 C8.917,177.085 9.446,176.48 10.147,176.433 C10.847,176.387 11.453,176.916 11.499,177.617 C11.544,178.294 11.045,178.872 10.378,178.952 C10.412,179.002 10.434,179.06 10.477,179.104 C10.843,179.495 11.407,179.646 11.931,179.602 C12.986,179.522 13.932,178.721 14.339,177.826 C14.742,176.912 14.552,175.831 14.021,174.977 C13.491,174.111 12.623,173.488 11.685,173.187 C9.753,172.565 7.614,173.475 6.461,175.073 C5.872,175.873 5.533,176.826 5.42,177.803 C5.292,178.804 5.492,179.679 5.962,180.562 C6.91,182.272 8.746,183.593 10.743,183.858 C11.74,184.017 12.744,183.905 13.818,183.633 C14.756,183.401 15.629,183.013 16.429,182.509 C19.426,127.411 66.371,82.145 127.4,72.677 C127.491,72.608 127.583,72.541 127.673,72.471 C128.657,72.818 129.766,73.139 131.009,73.43 C136.298,74.67 143.367,75.271 150.653,75.271 C159.152,75.271 167.942,74.454 174.543,72.88 C174.763,72.828 174.977,72.773 175.192,72.718 C235.962,82.255 282.71,127.297 285.885,182.156 C285.965,182.216 286.04,182.283 286.121,182.339 C286.99,182.932 287.961,183.374 289.007,183.633 C290.079,183.905 291.083,184.017 292.08,183.858 C294.078,183.593 295.913,182.272 296.861,180.562 C297.331,179.679 297.532,178.804 297.403,177.803 C297.29,176.826 296.952,175.873 296.362,175.073 C295.209,173.475 293.07,172.565 291.138,173.187 C290.2,173.488 289.333,174.11 288.802,174.977 C288.271,175.831 288.082,176.912 288.484,177.826 C288.892,178.721 289.838,179.522 290.893,179.602 C291.416,179.646 291.98,179.495 292.346,179.104 C292.39,179.06 292.411,179.002 292.445,178.952 C291.778,178.872 291.279,178.294 291.324,177.617 C291.371,176.916 291.977,176.387 292.677,176.433 C293.377,176.48 293.907,177.085 293.86,177.786 C293.818,178.405 293.333,178.868 292.737,178.939 C292.7,179.057 292.662,179.176 292.588,179.287 C292.222,179.851 291.542,180.125 290.896,180.168 C290.237,180.211 289.567,180.031 289.002,179.689 C288.438,179.349 287.945,178.894 287.587,178.291 C286.856,177.076 286.989,175.517 287.601,174.319 C288.208,173.102 289.282,172.112 290.576,171.616 C291.868,171.113 293.313,171.084 294.651,171.464 C295.991,171.858 297.163,172.699 298.039,173.764 C298.909,174.838 299.493,176.154 299.655,177.536 C299.734,178.207 299.753,178.942 299.612,179.656 C299.481,180.363 299.235,181.032 298.915,181.652 C297.612,184.128 295.086,185.748 292.381,186.099 C291.018,186.299 289.632,186.028 288.43,185.661 C287.586,185.401 286.758,185.037 285.99,184.567 C286.031,185.746 286.058,186.927 286.058,188.114 L286.058,339.238 C286.079,339.254 286.1,339.272 286.121,339.29 C286.99,339.882 287.961,340.324 289.007,340.582 C290.079,340.855 291.083,340.966 292.08,340.808 C294.078,340.543 295.913,339.223 296.861,337.51 C297.331,336.627 297.532,335.753 297.403,334.751 C297.29,333.775 296.952,332.822 296.362,332.022 C295.209,330.425 293.07,329.515 291.138,330.136 C290.2,330.439 289.333,331.06 288.802,331.926 C288.271,332.779 288.082,333.861 288.484,334.775 C288.892,335.67 289.838,336.473 290.893,336.552 C291.416,336.595 291.98,336.443 292.346,336.054 C292.39,336.01 292.411,335.951 292.445,335.901 C291.778,335.821 291.279,335.245 291.324,334.565 C291.371,333.865 291.977,333.337 292.677,333.383 C293.377,333.43 293.907,334.035 293.86,334.735 C293.818,335.355 293.333,335.816 292.737,335.887 C292.7,336.006 292.662,336.126 292.588,336.236 C292.222,336.801 291.542,337.073 290.896,337.118 C290.237,337.161 289.567,336.98 289.002,336.64 C288.438,336.299 287.945,335.843 287.587,335.24 C286.856,334.025 286.989,332.466 287.601,331.268 C288.208,330.051 289.282,329.062 290.576,328.565 C291.868,328.062 293.313,328.032 294.651,328.413 C295.991,328.807 297.163,329.648 298.039,330.714 C298.909,331.788 299.493,333.103 299.655,334.484 C299.734,335.155 299.753,335.891 299.612,336.606 C299.481,337.313 299.235,337.981 298.915,338.602 C297.612,341.078 295.086,342.697 292.381,343.049 C291.018,343.25 289.632,342.978 288.43,342.609 C287.61,342.356 286.806,342.006 286.058,341.555 L286.058,430.14 C285.666,430.274 285.273,430.408 284.883,430.541 C281.906,431.393 278.995,432.408 275.983,433.124 L271.502,434.289 C270.01,434.68 268.486,434.962 266.981,435.303 C263.968,435.969 260.964,436.676 257.914,437.184 L253.357,438.019 C251.842,438.303 250.325,438.585 248.791,438.786 L239.631,440.159 C236.576,440.605 233.496,440.903 230.433,441.283 C227.364,441.637 224.305,442.037 221.219,442.252 L211.988,443.085 C208.916,443.407 205.825,443.54 202.74,443.734 L193.485,444.287 C187.313,444.595 181.128,444.771 174.951,445.017 C171.863,445.173 168.767,445.128 165.674,445.178 L156.395,445.272 L151.756,445.349 C150.209,445.364 148.662,445.331 147.114,445.326 L137.83,445.256 C134.736,445.214 131.639,445.245 128.547,445.147 L119.271,444.881 C116.18,444.789 113.083,444.757 109.994,444.62 L100.73,444.154 C94.546,443.903 88.391,443.38 82.221,442.954 C79.131,442.777 76.067,442.398 72.992,442.101 L68.38,441.629 L66.073,441.397 L63.776,441.101 L54.585,439.908 L45.445,438.396 C42.413,437.831 39.39,437.203 36.361,436.59 L31.867,435.485 L29.614,434.937 L27.392,434.294 C24.412,433.48 21.484,432.501 18.595,431.404 C17.823,431.088 17.043,430.783 16.271,430.46 L16.271,345.014 C15.667,345.327 15.035,345.582 14.394,345.779 C13.192,346.147 11.806,346.418 10.443,346.219 C7.737,345.866 5.211,344.248 3.909,341.772 C3.589,341.151 3.342,340.482 3.211,339.775 C3.07,339.061 3.089,338.326 3.169,337.654 C3.33,336.274 3.915,334.958 4.785,333.884 C5.661,332.816 6.833,331.979 8.172,331.583 C9.51,331.202 10.956,331.231 12.248,331.734 C13.542,332.231 14.615,333.222 15.222,334.439 C15.833,335.636 15.968,337.197 15.236,338.41 C14.878,339.013 14.386,339.469 13.822,339.81 C13.256,340.15 12.585,340.331 11.929,340.286 C11.281,340.245 10.601,339.97 10.237,339.406 C10.162,339.297 10.123,339.178 10.086,339.058 C9.491,338.986 9.004,338.525 8.963,337.904 C8.917,337.204 9.446,336.6 10.147,336.552 C10.847,336.505 11.453,337.035 11.499,337.735 C11.544,338.414 11.045,338.992 10.378,339.071 M150.503,24.709 C155.168,24.709 158.964,20.914 158.964,16.25 C158.964,11.585 155.168,7.79 150.503,7.79 C145.839,7.79 142.043,11.585 142.043,16.25 C142.043,20.914 145.839,24.709 150.503,24.709 M131.243,72.431 C130.284,72.207 129.427,71.961 128.632,71.705 C133.752,67.476 137.687,61.805 140.702,55.694 C138.311,55.104 136.838,54.313 136.838,53.441 C136.838,52.324 139.244,51.339 142.916,50.74 C145.48,44.427 147.194,37.948 148.328,32.334 L145.708,32.334 L145.708,29.119 C140.488,27.168 136.753,22.143 136.753,16.25 C136.753,8.668 142.922,2.501 150.503,2.501 C158.085,2.501 164.253,8.668 164.253,16.25 C164.253,22.144 160.519,27.168 155.297,29.12 L155.297,32.334 L152.894,32.334 C154.092,37.909 155.863,44.333 158.465,50.601 C162.666,51.177 165.491,52.231 165.491,53.441 C165.491,54.401 163.71,55.262 160.882,55.866 C164.059,62.128 168.193,67.912 173.555,72.13 C161.511,74.837 142.393,75.045 131.243,72.431 M300.41,466.855 C298.559,469.661 295.588,471.426 292.43,472.291 C289.259,473.124 285.684,473.022 282.495,471.566 C282.105,471.376 281.695,471.212 281.321,470.988 L280.21,470.293 C279.512,469.803 278.88,469.319 278.242,468.775 C276.979,467.696 275.834,466.421 274.836,465.005 C272.855,462.141 271.781,458.544 271.743,455.043 C271.71,452.052 272.291,449.171 273.197,446.469 C254.104,451.701 213.994,460.224 154.539,460.537 C154.582,460.736 154.633,460.933 154.672,461.134 C155.194,463.784 155.568,466.473 155.572,469.216 C155.563,471.952 155.373,474.722 154.607,477.422 C154.48,478.1 154.18,478.756 153.961,479.415 C153.721,480.072 153.51,480.733 153.156,481.351 L152.191,483.215 C151.799,483.797 151.387,484.362 150.984,484.929 C150.254,486.042 149.085,487.273 147.633,488.035 C146.18,488.848 144.277,489.022 142.734,488.504 C141.174,488.01 139.951,487.025 139.041,485.91 C138.128,484.788 137.502,483.504 137.128,482.175 C136.43,479.54 136.476,476.864 137.072,474.345 C137.38,473.088 137.827,471.859 138.509,470.76 C138.741,470.383 139.025,470.042 139.332,469.722 C139.267,469.357 139.223,468.98 139.223,468.579 C139.223,466.4 140.244,464.633 141.504,464.633 C142.766,464.633 143.787,466.4 143.787,468.579 C143.787,470.76 142.766,472.529 141.504,472.529 C140.567,472.529 139.766,471.55 139.414,470.153 C139.239,470.426 139.086,470.715 138.961,471.004 C138.466,472.114 138.208,473.317 138.083,474.519 C137.845,476.921 138.177,479.389 139.063,481.495 C139.927,483.545 141.72,485.263 143.494,485.521 C144.363,485.655 145.136,485.457 145.812,484.941 C146.497,484.411 147.068,483.721 147.563,482.664 C149.764,478.776 150.112,474.155 149.434,469.672 C149.125,467.424 148.491,465.187 147.74,463.008 C147.455,462.174 147.125,461.349 146.779,460.535 C81.588,460.21 45.952,452.639 29.028,447.398 C29.762,449.828 30.214,452.393 30.184,455.043 C30.146,458.544 29.07,462.141 27.093,465.005 C26.093,466.421 24.949,467.696 23.684,468.775 C23.047,469.319 22.415,469.803 21.717,470.293 L20.605,470.988 C20.231,471.212 19.822,471.376 19.431,471.566 C16.244,473.022 12.667,473.124 9.496,472.291 C6.339,471.426 3.368,469.661 1.517,466.855 C-0.3,464.027 -0.43,460.436 0.836,457.571 C1.462,456.134 2.429,454.851 3.667,453.932 C3.817,453.817 3.983,453.733 4.141,453.632 C4.032,453.272 3.956,452.897 3.956,452.503 C3.956,450.322 5.724,448.555 7.905,448.555 C10.085,448.555 11.853,450.322 11.853,452.503 C11.853,454.684 10.085,456.451 7.905,456.451 C6.288,456.451 4.903,455.477 4.292,454.086 C4.195,454.169 4.087,454.237 3.996,454.325 C2.945,455.312 2.207,456.583 1.798,457.93 C0.959,460.624 1.509,463.64 3.188,465.665 C4.875,467.686 7.517,468.893 10.134,469.281 C12.772,469.649 15.461,469.207 17.577,467.906 C17.835,467.734 18.113,467.598 18.355,467.405 L19.075,466.825 C19.546,466.402 20.051,465.918 20.492,465.441 C21.392,464.473 22.122,463.412 22.721,462.323 C23.87,460.109 24.279,457.695 24.032,455.246 C23.769,452.794 22.897,450.331 21.673,447.999 C21.06,446.832 20.358,445.694 19.592,444.602 C19.382,444.309 19.16,444.028 18.944,443.741 C17.108,442.939 16.271,442.457 16.271,442.457 L16.271,431.115 C16.937,431.458 17.61,431.788 18.279,432.133 C21.107,433.454 23.999,434.646 26.944,435.684 L29.145,436.488 L31.379,437.184 L35.856,438.567 C38.871,439.362 41.888,440.174 44.919,440.926 C57.078,443.798 69.441,445.586 81.82,447.049 C88.017,447.69 94.215,448.421 100.435,448.769 L109.758,449.424 C112.866,449.624 115.977,449.718 119.087,449.871 L128.42,450.247 C131.532,450.365 134.644,450.356 137.756,450.419 L147.091,450.551 C148.647,450.566 150.203,450.611 151.76,450.605 L156.43,450.558 L165.771,450.408 C168.884,450.336 171.997,450.36 175.108,450.183 L184.446,449.773 L189.113,449.566 C190.669,449.51 192.226,449.431 193.778,449.288 C206.206,448.335 218.641,447.307 230.974,445.374 C243.326,443.658 255.582,441.129 267.618,437.82 C269.117,437.387 270.631,437.014 272.116,436.53 L276.573,435.088 C279.558,434.183 282.461,433.005 285.382,431.921 C285.606,431.824 285.832,431.73 286.058,431.634 L286.058,442.457 C286.058,442.457 285.094,442.829 283.189,443.466 C282.901,443.841 282.612,444.216 282.335,444.602 C281.568,445.694 280.867,446.832 280.254,447.999 C279.03,450.331 278.157,452.794 277.895,455.246 C277.648,457.695 278.057,460.109 279.206,462.323 C279.806,463.412 280.535,464.473 281.435,465.441 C281.876,465.918 282.381,466.402 282.854,466.825 L283.571,467.405 C283.814,467.598 284.092,467.734 284.35,467.906 C286.466,469.207 289.154,469.649 291.793,469.281 C294.41,468.893 297.052,467.686 298.74,465.665 C300.418,463.64 300.967,460.624 300.129,457.93 C299.72,456.583 298.981,455.312 297.932,454.325 C297.84,454.237 297.731,454.169 297.636,454.086 C297.024,455.477 295.639,456.451 294.021,456.451 C291.842,456.451 290.074,454.684 290.074,452.503 C290.074,450.322 291.842,448.555 294.021,448.555 C296.202,448.555 297.971,450.322 297.971,452.503 C297.971,452.897 297.896,453.272 297.787,453.632 C297.944,453.733 298.109,453.817 298.259,453.932 C299.497,454.851 300.466,456.134 301.09,457.571 C302.357,460.436 302.228,464.027 300.41,466.855" fill="#0B0B09"/>
  </g>
</svg>
