<?xml version="1.0" encoding="UTF-8" standalone="no"?>
<!-- Created with Inkscape (http://www.inkscape.org/) -->

<svg
   xmlns:dc="http://purl.org/dc/elements/1.1/"
   xmlns:cc="http://creativecommons.org/ns#"
   xmlns:rdf="http://www.w3.org/1999/02/22-rdf-syntax-ns#"
   xmlns:svg="http://www.w3.org/2000/svg"
   xmlns="http://www.w3.org/2000/svg"
   xmlns:sodipodi="http://sodipodi.sourceforge.net/DTD/sodipodi-0.dtd"
   xmlns:inkscape="http://www.inkscape.org/namespaces/inkscape"
   version="1.1"
   id="svg64885"
   xml:space="preserve"
   width="800"
   height="800"
   viewBox="0 0 800 800"
   sodipodi:docname="people-color-silhouette.svg"
   inkscape:version="0.92.4 (5da689c313, 2019-01-14)"><metadata
     id="metadata64891"><rdf:RDF><cc:Work
         rdf:about=""><dc:format>image/svg+xml</dc:format><dc:type
           rdf:resource="http://purl.org/dc/dcmitype/StillImage" /><dc:title></dc:title></cc:Work></rdf:RDF></metadata><defs
     id="defs64889"><clipPath
       clipPathUnits="userSpaceOnUse"
       id="clipPath64901"><path
         d="M 0,600 H 600 V 0 H 0 Z"
         id="path64899"
         inkscape:connector-curvature="0" /></clipPath></defs><sodipodi:namedview
     pagecolor="#ffffff"
     bordercolor="#666666"
     borderopacity="1"
     objecttolerance="10"
     gridtolerance="10"
     guidetolerance="10"
     inkscape:pageopacity="0"
     inkscape:pageshadow="2"
     inkscape:window-width="797"
     inkscape:window-height="480"
     id="namedview64887"
     showgrid="false"
     inkscape:zoom="0.295"
     inkscape:cx="400"
     inkscape:cy="400"
     inkscape:window-x="0"
     inkscape:window-y="0"
     inkscape:window-maximized="0"
     inkscape:current-layer="g64893" /><g
     id="g64893"
     inkscape:groupmode="layer"
     inkscape:label="people-color-silhouette"
     transform="matrix(1.3333333,0,0,-1.3333333,0,800)"><g
       id="g64895"><g
         id="g64897"
         clip-path="url(#clipPath64901)"><path
           d="m 524.99,305.108 c -0.285,1.993 0.506,3.062 3.273,4.441 1.579,0.788 3.496,3.973 3.496,5.814 0,2.078 -1.385,6.827 -2.65,9.09 -0.593,1.062 -1.847,2.557 -2.883,3.454 l -10.344,-21.265 c 0.213,-0.177 0.356,-0.375 0.451,-0.642 l 8.872,-1.826 c -0.095,0.294 -0.168,0.604 -0.215,0.934"
           style="fill:#b4281c;fill-opacity:1;fill-rule:nonzero;stroke:none"
           id="path64903"
           inkscape:connector-curvature="0" /><path
           d="m 582.241,298.527 c -1.668,2.658 -5.918,5.703 -11.991,8.591 -5.961,2.836 -6.515,3.703 -4.146,6.517 1.503,1.785 2.328,6.209 1.279,6.856 -0.313,0.192 -0.567,1.244 -0.567,2.341 0,4.385 -2.836,8.083 -6.765,8.821 -2.486,0.467 -7.022,-0.473 -8.716,-1.807 -2.487,-1.959 -3.422,-4.666 -3.462,-10.042 -0.039,-5.82 0.692,-8.746 2.567,-10.215 1.359,-1.07 1.365,-1.104 0.369,-1.847 -0.558,-0.422 -2.043,-1.289 -3.301,-1.936 -2.554,-1.313 -3.397,-2.069 -4.983,-5.198 l 42.437,-8.737 c -0.836,2.775 -1.767,5.141 -2.721,6.656"
           style="fill:#b4281c;fill-opacity:1;fill-rule:nonzero;stroke:none"
           id="path64905"
           inkscape:connector-curvature="0" /><path
           d="m 543.95,247.869 c 0.119,-0.865 0.25,-1.775 0.389,-2.702 L 577.994,235.1 c 0.927,0.645 1.411,1.283 1.631,2.097 0.227,0.839 0.681,6.44 1.004,12.451 l 0.592,10.925 2.904,2.793 c 1.599,1.536 3.174,3.321 3.504,3.968 1.01,1.986 0.735,7.699 -0.253,13.823 l -45.671,-25.402 c 1.173,-0.567 1.397,-1.711 2.245,-7.886"
           style="fill:#ab8fa7;fill-opacity:1;fill-rule:nonzero;stroke:none"
           id="path64907"
           inkscape:connector-curvature="0" /><path
           d="m 533.637,248.369 c -0.188,0.846 -0.389,1.733 -0.587,2.571 l -2.802,-1.558 z"
           style="fill:#ab8fa7;fill-opacity:1;fill-rule:nonzero;stroke:none"
           id="path64909"
           inkscape:connector-curvature="0" /><path
           d="m 527.445,171.284 c -0.438,0.722 -1.089,1.561 -1.934,2.487 l -4.445,-3.061 z"
           style="fill:#003ccc;fill-opacity:1;fill-rule:nonzero;stroke:none"
           id="path64911"
           inkscape:connector-curvature="0" /><path
           d="m 570.434,194.206 c 2.529,-5.038 3.562,-7.695 3.806,-9.777 0.245,-2.088 0.685,-3.214 1.608,-4.138 0.698,-0.697 1.466,-1.266 1.709,-1.266 0.238,0 0.438,-0.342 0.438,-0.765 0,-0.417 -0.248,-0.76 -0.549,-0.76 -0.309,0 -0.464,-0.709 -0.39,-1.748 l 13.027,1.174 c -0.002,0.23 0.002,0.449 0.014,0.647 0.13,2.206 -2.775,13.78 -4.889,19.487 -0.83,2.24 -3.447,8.066 -5.817,12.957 -0.103,0.212 -0.206,0.426 -0.31,0.641 l -12.619,-8.688 c 1.059,-2.003 2.359,-4.55 3.972,-7.764"
           style="fill:#003ccc;fill-opacity:1;fill-rule:nonzero;stroke:none"
           id="path64913"
           inkscape:connector-curvature="0" /><path
           d="m 537.539,174.545 c -0.256,-0.917 -0.093,-1.232 0.758,-1.458 0.636,-0.166 0.977,-0.398 0.998,-0.735 l 12.651,1.139 c 0.49,1.227 0.999,3.762 1.9,8.833 0.745,4.194 1.567,8.145 1.829,8.792 0.259,0.642 0.472,1.631 0.472,2.2 0,0.362 0.128,0.989 0.346,1.789 l -17.098,-11.774 c -0.76,-4.009 -1.446,-7.312 -1.856,-8.786"
           style="fill:#003ccc;fill-opacity:1;fill-rule:nonzero;stroke:none"
           id="path64915"
           inkscape:connector-curvature="0" /><path
           d="m 577.066,175.604 c 0.155,-1.785 0.011,-2.005 -2.375,-3.558 -3.463,-2.257 -3.883,-2.65 -3.498,-3.276 0.532,-0.868 6.597,-0.164 11.12,1.278 2.234,0.715 5.051,1.554 6.258,1.868 2.136,0.547 2.181,0.603 1.808,2.185 -0.173,0.715 -0.288,1.87 -0.296,2.825 l -13.027,-1.174 c 0.003,-0.049 0.007,-0.098 0.01,-0.148"
           style="fill:#006ad4;fill-opacity:1;fill-rule:nonzero;stroke:none"
           id="path64917"
           inkscape:connector-curvature="0" /><path
           d="m 520.332,163.46 c 0.346,0.751 0.667,1.619 0.96,2.603 0.597,2.014 0.624,2.032 3.374,2.2 1.526,0.096 2.967,0.36 3.205,0.586 0.442,0.425 0.276,1.282 -0.426,2.435 l -6.379,-0.574 z"
           style="fill:#006ad4;fill-opacity:1;fill-rule:nonzero;stroke:none"
           id="path64919"
           inkscape:connector-curvature="0" /><path
           d="m 534.938,168.467 c -2.442,-1.616 -4.516,-3.327 -4.61,-3.811 -0.259,-1.341 4.993,-1.166 9.912,0.331 2.182,0.659 5.109,1.403 6.507,1.65 2.336,0.411 2.55,0.568 2.68,1.969 0.253,2.781 0.633,3.811 1.404,3.811 0.444,0 0.775,0.222 1.115,1.074 l -12.651,-1.139 c 0.043,-0.705 -1.317,-1.873 -4.357,-3.885"
           style="fill:#006ad4;fill-opacity:1;fill-rule:nonzero;stroke:none"
           id="path64921"
           inkscape:connector-curvature="0" /><path
           d="m 546.768,231.828 c 0.163,-0.259 0.838,-0.338 1.504,-0.175 0.665,0.169 1.436,0.169 1.709,-0.005 0.611,-0.371 -1.683,-9.293 -4.547,-17.685 -1.119,-3.276 -2.14,-6.817 -2.27,-7.875 -0.618,-5.035 -2.328,-15.163 -3.769,-22.757 l 17.098,11.774 c 1.161,4.255 4.889,13.403 5.632,13.37 0.643,-0.029 1.78,-1.668 4.337,-6.505 l 12.619,8.688 c -2.286,4.726 -4.737,9.87 -5.558,11.662 l -1.558,3.418 1.271,3.715 c 1.179,3.434 1.449,3.805 3.624,4.964 0.437,0.233 0.812,0.458 1.134,0.683 l -33.655,10.067 c 0.902,-6.045 2.126,-12.851 2.429,-13.339"
           style="fill:#5898c4;fill-opacity:1;fill-rule:nonzero;stroke:none"
           id="path64923"
           inkscape:connector-curvature="0" /><path
           d="m 521.066,170.71 4.445,3.061 c -0.072,0.078 -0.141,0.154 -0.215,0.234 -1.351,1.446 -2.442,3.185 -2.691,4.283 -0.435,1.931 0.426,8.432 2.686,20.247 l 1.156,6.05 3.453,0.946 c 1.901,0.518 4.346,1.401 5.435,1.952 l 1.984,1.014 -0.275,4.953 c -0.527,9.446 -2.218,28.847 -2.778,31.876 -0.142,0.772 -0.37,1.867 -0.629,3.043 l -3.389,1.013 z"
           style="fill:#5898c4;fill-opacity:1;fill-rule:nonzero;stroke:none"
           id="path64925"
           inkscape:connector-curvature="0" /><path
           d="m 534.657,269.642 c -0.338,-0.322 -1.103,-0.726 -1.702,-0.907 l -1.09,-0.327 1.031,3.446 c 0.565,1.896 1.193,3.629 1.396,3.855 0.199,0.226 0.503,-0.917 0.672,-2.538 0.208,-2.005 0.11,-3.135 -0.307,-3.529 m 7.868,30.966 c -0.27,-0.534 -0.562,-1.134 -0.888,-1.822 l -1.875,-3.945 -1.5,2.038 c -1.528,2.076 -1.77,2.184 -7.945,3.591 -2.875,0.653 -4.499,1.82 -5.112,3.704 L 516.333,306 c 0.15,-0.42 0.184,-1.01 0.184,-1.957 0,-0.387 -0.018,-0.74 -0.061,-1.07 l 13.792,-53.591 2.802,1.558 c -0.125,0.528 -0.247,1.036 -0.363,1.5 -0.56,2.235 -1.117,4.526 -1.242,5.082 -0.179,0.829 0.341,1.267 2.801,2.366 1.664,0.742 3.155,1.22 3.316,1.057 0.16,-0.158 0.292,-0.912 0.292,-1.666 0,-1.553 0.962,-2.538 3.225,-3.282 0.237,-0.077 0.443,-0.153 0.626,-0.242 l 45.671,25.402 c -0.591,3.66 -1.436,7.467 -2.414,10.714 z"
           style="fill:#b28e76;fill-opacity:1;fill-rule:nonzero;stroke:none"
           id="path64927"
           inkscape:connector-curvature="0" /><path
           d="m 530.248,249.382 -30.257,-15.06 c -0.482,-3.119 -1.162,-7.139 -1.768,-10.335 -0.268,-1.396 -0.619,-3.855 -0.785,-5.46 h -0.003 c -0.166,-1.609 -0.484,-2.922 -0.709,-2.922 -0.226,0 -0.679,3.03 -1.011,6.733 -0.332,3.704 -0.819,7.83 -1.081,9.169 -0.008,0.044 -0.017,0.091 -0.025,0.137 l -10.479,-5.217 14.434,-21.775 c 0.179,0.524 0.378,0.623 0.652,0.519 1.507,-0.586 5.766,-1.25 7.978,-1.25 2.646,0 2.827,-0.31 3.707,-6.355 0.328,-2.235 1.284,-6.923 2.13,-10.413 0.673,-2.782 1.198,-4.958 1.595,-6.728 l 6.44,-9.715 z"
           style="fill:#6dc9cd;fill-opacity:1;fill-rule:nonzero;stroke:none"
           id="path64929"
           inkscape:connector-curvature="0" /><path
           d="m 494.812,326.936 c -0.543,0.389 -1.272,1.846 -1.622,3.242 -1.026,4.132 -3.343,5.882 -7.921,5.989 -1.247,0.028 -2.382,-0.169 -3.405,-0.581 l 13.58,-11.838 c 0.325,2.638 0.119,2.649 -0.632,3.188"
           style="fill:#c32500;fill-opacity:1;fill-rule:nonzero;stroke:none"
           id="path64931"
           inkscape:connector-curvature="0" /><path
           d="m 525.995,328.101 c -2.699,2.167 -6.58,2.201 -10.262,0.096 -5.04,-2.882 -7.19,-6.401 -6.647,-10.875 0.284,-2.364 0.329,-3.1 0.275,-4.767 -0.015,-0.524 0.983,-1.727 2.246,-2.896 l 0.972,-0.847 c 0.858,-0.704 1.747,-1.324 2.479,-1.678 0.353,-0.172 0.621,-0.322 0.824,-0.492 l 10.344,21.265 c -0.079,0.068 -0.156,0.133 -0.231,0.194"
           style="fill:#c32500;fill-opacity:1;fill-rule:nonzero;stroke:none"
           id="path64933"
           inkscape:connector-curvature="0" /><path
           d="m 501.502,267.886 c 0.705,2.07 1.781,5.599 2.389,7.851 1.32,4.898 1.84,4.239 1.736,-2.212 -0.062,-3.697 -0.31,-4.851 -1.738,-8.032 -1.738,-3.878 -1.825,-5.972 -0.3,-7.238 0.994,-0.822 0.918,-3.36 -0.247,-8.285 -0.535,-2.275 -1.072,-4.588 -1.191,-5.151 -0.338,-1.593 -0.726,-0.179 -1.683,6.096 -1.04,6.839 -0.74,11.786 1.034,16.971 m -6.893,-36.242 c -0.25,1.348 -0.45,3.447 -0.45,4.744 v 2.442 l 3.132,0.327 c 1.723,0.18 3.22,0.241 3.323,0.135 0.084,-0.083 -0.189,-2.16 -0.623,-4.97 l 30.257,15.06 -13.792,53.591 c -0.215,-1.669 -1.101,-2.749 -3.931,-4.709 L 484.13,226.427 Z"
           style="fill:#abc38b;fill-opacity:1;fill-rule:nonzero;stroke:none"
           id="path64935"
           inkscape:connector-curvature="0" /><path
           d="m 464.308,270.601 c 0.674,1.551 1.252,2.898 1.446,3.37 0.642,1.564 0.779,1.379 1.739,-2.37 0.772,-3.006 0.76,-3.243 -0.231,-5.489 -0.128,-0.289 -0.294,-0.637 -0.483,-1.017 l 17.351,-38.668 28.395,71.837 c -0.671,-0.466 -1.452,-0.981 -2.361,-1.565 l -3.558,-2.291 -0.577,4.419 c -0.543,4.164 -0.895,5.742 -2.223,7.607 l -19.136,0.469 c -0.535,-1.117 -1.16,-2.715 -1.678,-4.345 -0.856,-2.697 -2.017,-6.039 -2.582,-7.435 -1.421,-3.529 -5.251,-11.393 -5.557,-11.415 -0.141,-0.012 -1.014,2.212 -1.943,4.936 -1.578,4.627 -4.122,10.261 -5.262,11.658 -0.509,0.623 -2.036,1.187 -5.874,2.177 -1.647,0.422 -2.232,0.856 -2.474,1.818 -0.346,1.385 -1.584,2.258 -3.213,2.258 -0.805,0 -1.121,0.373 -0.959,1.073 l -7.518,0.185 z"
           style="fill:#c8c46c;fill-opacity:1;fill-rule:nonzero;stroke:none"
           id="path64937"
           inkscape:connector-curvature="0" /><path
           d="m 472.381,160.456 c 0.716,-0.228 1.492,-0.094 2.19,0.306 l -4.124,3.928 c 0.245,-2.289 0.946,-3.923 1.934,-4.234"
           style="fill:#0097de;fill-opacity:1;fill-rule:nonzero;stroke:none"
           id="path64939"
           inkscape:connector-curvature="0" /><path
           d="m 515.313,170.326 c -0.11,-0.664 -0.247,-1.39 -0.404,-2.226 -0.819,-4.357 -0.931,-5.899 -0.499,-6.991 0.606,-1.519 1.675,-1.739 3.525,-0.709 0.883,0.487 1.692,1.527 2.397,3.06 l 0.734,7.25 z"
           style="fill:#008dde;fill-opacity:1;fill-rule:nonzero;stroke:none"
           id="path64941"
           inkscape:connector-curvature="0" /><path
           d="m 470.447,164.69 4.124,-3.928 c 0.815,0.466 1.524,1.292 1.902,2.34 0.339,0.928 0.968,1.785 1.399,1.908 0.993,0.27 8.781,1.012 9.314,0.889 0.671,-0.163 5.161,1.047 5.828,1.571 0.233,0.183 0.437,0.737 0.548,1.406 l -23.196,-1.547 c -0.034,-0.941 -0.005,-1.831 0.081,-2.639"
           style="fill:#008dde;fill-opacity:1;fill-rule:nonzero;stroke:none"
           id="path64943"
           inkscape:connector-curvature="0" /><path
           d="m 514.626,180.425 c 1.159,-5.173 1.225,-6.881 0.687,-10.099 l 5.753,0.384 z"
           style="fill:#169ee2;fill-opacity:1;fill-rule:nonzero;stroke:none"
           id="path64945"
           inkscape:connector-curvature="0" /><path
           d="m 480.186,170.655 c -1.957,-1.603 -2.795,-1.609 -2.795,-0.016 0,1.154 0.194,1.271 2.159,1.266 h 2.161 z m -2.528,32.213 c 0.1,-1.127 0.185,-2.241 0.248,-3.269 0.709,-11.658 0.67,-11.472 2.567,-13.053 l 1.682,-1.408 -2.127,-1.965 c -1.171,-1.079 -2.128,-2.419 -2.128,-2.977 0,-0.557 -0.402,-1.362 -0.889,-1.778 -1.07,-0.918 -2.161,-1.565 -2.161,-1.283 0,0.737 -0.768,4.565 -1.763,9.085 l -3.901,-14.205 c 0.006,-0.002 0.013,-0.006 0.021,-0.009 1.452,-0.506 1.466,-0.551 1.213,-3.736 -0.025,-0.32 -0.042,-0.632 -0.054,-0.941 l 23.196,1.547 c 0.054,0.336 0.087,0.701 0.087,1.064 0,1.588 0.186,1.97 0.957,1.97 1.387,0 1.605,1.211 2.081,11.686 0.235,5.167 0.725,12.209 1.085,15.636 0.326,3.085 0.539,4.68 0.792,5.42 l -14.434,21.775 z"
           style="fill:#169ee2;fill-opacity:1;fill-rule:nonzero;stroke:none"
           id="path64947"
           inkscape:connector-curvature="0" /><path
           d="m 502.089,308.524 c -1.263,1.424 -2.547,3.057 -2.854,3.631 -0.308,0.568 -1.223,1.171 -2.037,1.334 -1.821,0.366 -2.794,2.831 -2.35,5.955 0.275,1.928 0.473,3.304 0.596,4.304 l -13.58,11.838 c -1.844,-0.742 -3.32,-2.188 -4.386,-4.327 -1.056,-2.116 -1.148,-2.809 -0.847,-6.299 0.501,-5.769 1.044,-7.368 3.557,-10.452 1.855,-2.28 2.634,-2.843 4.306,-3.124 2.319,-0.394 2.71,-1.531 1.05,-3.034 -0.217,-0.195 -0.525,-0.72 -0.874,-1.447 l 19.136,-0.469 c -0.447,0.628 -1.004,1.288 -1.717,2.09"
           style="fill:#ce620a;fill-opacity:1;fill-rule:nonzero;stroke:none"
           id="path64949"
           inkscape:connector-curvature="0" /><path
           d="m 455.128,307.628 c 0.133,0.579 0.59,1.379 1.375,2.382 2.694,3.441 2.549,9.056 -0.265,14.11 l -8.628,-16.307 z"
           style="fill:#ce620a;fill-opacity:1;fill-rule:nonzero;stroke:none"
           id="path64951"
           inkscape:connector-curvature="0" /><path
           d="m 512.579,308.812 -0.972,0.847 c 0.312,-0.288 0.64,-0.574 0.972,-0.847"
           style="fill:#ce620a;fill-opacity:1;fill-rule:nonzero;stroke:none"
           id="path64953"
           inkscape:connector-curvature="0" /><path
           d="m 432.066,268.516 c -3.641,1.136 -5.316,1.181 -7.008,0.185 -0.698,-0.41 -1.671,-0.894 -2.159,-1.069 -1.114,-0.404 -1.117,-0.687 -0.01,-1.497 0.794,-0.58 0.694,-0.732 -1.017,-1.548 -1.041,-0.495 -1.893,-1.069 -1.893,-1.272 0,-0.202 0.703,-0.957 1.561,-1.682 1.762,-1.487 4.064,-1.695 6.06,-0.552 0.615,0.352 1.366,0.586 2.018,0.684 l 2.617,6.698 z"
           style="fill:#dae262;fill-opacity:1;fill-rule:nonzero;stroke:none"
           id="path64955"
           inkscape:connector-curvature="0" /><path
           d="m 439.482,287.01 2.237,5.723 c -0.719,-1.223 -1.49,-3.221 -2.237,-5.723"
           style="fill:#dae262;fill-opacity:1;fill-rule:nonzero;stroke:none"
           id="path64957"
           inkscape:connector-curvature="0" /><path
           d="m 443.349,297.565 c 0,-0.257 -0.014,-0.51 -0.04,-0.761 l 1.828,4.679 c -1.527,-1.522 -1.788,-2.141 -1.788,-3.918"
           style="fill:#dae262;fill-opacity:1;fill-rule:nonzero;stroke:none"
           id="path64959"
           inkscape:connector-curvature="0" /><path
           d="m 443.714,305.938 c 0.598,-0.238 1.375,-0.402 2.018,-0.402 0.382,0 0.697,-0.036 0.948,-0.105 l 0.93,2.382 z"
           style="fill:#dae262;fill-opacity:1;fill-rule:nonzero;stroke:none"
           id="path64961"
           inkscape:connector-curvature="0" /><path
           d="m 396.205,253.005 0.233,3.297 2.534,2.639 c 4.163,4.334 4.211,4.469 3.937,11.342 -0.222,5.645 -1.056,10.631 -2.461,14.84 l -13.564,-6.525 z"
           style="fill:#dae262;fill-opacity:1;fill-rule:nonzero;stroke:none"
           id="path64963"
           inkscape:connector-curvature="0" /><path
           d="m 475.322,222.715 c 0.293,-4.046 0.899,-9.31 1.343,-11.685 0.328,-1.751 0.716,-5.006 0.993,-8.162 l 6.472,23.559 -8.96,-1.604 c 0.053,-0.728 0.103,-1.437 0.152,-2.108"
           style="fill:#74e0e0;fill-opacity:1;fill-rule:nonzero;stroke:none"
           id="path64965"
           inkscape:connector-curvature="0" /><path
           d="m 469.173,202.311 c -0.284,0.934 -0.61,3.18 -0.726,4.993 -0.113,1.812 -0.768,5.28 -1.452,7.706 -0.769,2.712 -1.38,5.343 -1.853,8.019 l -41.633,-7.451 c -0.787,-3.42 -0.245,-3.437 4.671,-5.015 2.056,-0.659 3.917,-1.363 4.138,-1.554 0.298,-0.262 -0.186,-6.049 -0.9,-12.461 l 6.895,-5.561 c 1.292,4.233 2.667,8.958 3.244,11.155 1.367,5.217 0.423,4.751 8.397,4.132 7.128,-0.552 6.825,-0.343 9.36,-6.428 1.221,-2.927 3.581,-8.415 5.244,-12.186 1.663,-3.771 3.511,-8.168 4.106,-9.771 1.075,-2.888 1.075,-2.911 0.078,-3.446 -1.436,-0.767 -1.239,-1.836 0.444,-2.428 l 3.901,14.205 c -1.329,6.034 -3.063,13.301 -3.914,16.091"
           style="fill:#74e0e0;fill-opacity:1;fill-rule:nonzero;stroke:none"
           id="path64967"
           inkscape:connector-curvature="0" /><path
           d="m 430.808,254.072 c -0.445,0.153 -0.4,0.878 0.183,2.843 0.856,2.894 1.652,4.621 1.981,4.289 0.485,-0.484 -1.592,-7.322 -2.164,-7.132 m 33.125,-19.926 c -0.166,3.356 -0.412,7.617 -0.541,9.468 -0.239,3.332 -0.222,3.383 1.632,5.185 1.031,0.996 2.061,1.699 2.291,1.553 0.234,-0.141 0.422,-1.565 0.422,-3.164 0,-3.551 0.806,-4.834 3.986,-6.336 l 2.367,-1.122 0.348,-4.823 c 0.16,-2.214 0.465,-6.402 0.732,-10.084 l 8.96,1.604 -17.351,38.668 c -0.653,-1.316 -1.599,-3.046 -2.377,-4.324 -1.002,-1.65 -2.031,-3 -2.293,-3 -0.258,0 -0.47,1.519 -0.47,3.366 0,2.746 0.332,4.126 1.809,7.497 0.29,0.66 0.583,1.331 0.86,1.967 l -16.698,37.212 -0.93,-2.382 c 1.28,-0.356 0.847,-1.611 -1.299,-3.707 -0.086,-0.083 -0.165,-0.162 -0.244,-0.241 l -1.828,-4.679 c -0.131,-1.248 -0.596,-2.45 -1.502,-3.922 -0.03,-0.047 -0.059,-0.099 -0.088,-0.149 l -2.237,-5.723 c -0.932,-3.122 -1.827,-7.029 -2.536,-11.199 -0.428,-2.511 -1.015,-5.398 -1.311,-6.406 l -0.532,-1.835 -2.868,0.893 -2.617,-6.698 c 0.851,0.127 1.536,0.019 1.536,-0.37 0,-0.248 -0.538,-1.879 -1.196,-3.63 -0.808,-2.15 -1.61,-3.406 -2.468,-3.855 -0.892,-0.463 -1.461,-1.391 -1.9,-3.097 -0.346,-1.339 -0.814,-3.011 -1.041,-3.709 -1.168,-3.608 -2.659,-10.638 -2.401,-11.313 0.183,-0.478 1.29,-0.912 2.873,-1.126 2.049,-0.281 2.579,-0.552 2.579,-1.306 0,-0.873 -0.71,-3.973 -3.639,-15.918 -0.176,-0.717 -0.33,-1.331 -0.452,-1.863 l 41.633,7.451 c -0.625,3.528 -1.014,7.136 -1.209,11.117"
           style="fill:#afdf7b;fill-opacity:1;fill-rule:nonzero;stroke:none"
           id="path64969"
           inkscape:connector-curvature="0" /><path
           d="m 390.447,164.402 c 3.688,0.276 13.74,3.259 14.094,4.182 0.125,0.32 -0.21,1.976 -0.742,3.687 -0.836,2.685 -0.869,3.204 -0.245,3.828 0.597,0.597 0.514,1.213 -0.716,4.304 l -15.36,3.128 c 0.143,-0.361 0.291,-0.742 0.431,-1.128 1.52,-4.137 2.538,-6.05 3.73,-6.991 0.978,-0.776 0.984,-0.872 0.157,-2.14 -0.479,-0.725 -0.732,-1.75 -0.563,-2.279 0.306,-0.968 -0.596,-2.144 -3.493,-4.542 -0.592,-0.491 -0.942,-0.892 -1.05,-1.208 l 0.323,-0.658 c 0.535,-0.255 1.673,-0.312 3.434,-0.183"
           style="fill:#14b4ec;fill-opacity:1;fill-rule:nonzero;stroke:none"
           id="path64971"
           inkscape:connector-curvature="0" /><path
           d="m 422.15,167.853 c -1.753,-1.605 -3.19,-3.181 -3.19,-3.497 0,-0.753 3.897,-0.753 6.149,0 0.951,0.316 2.918,1.459 4.373,2.54 1.456,1.08 2.756,1.963 2.888,1.963 0.132,0 0.315,-0.63 0.402,-1.394 0.246,-2.123 1.441,-1.672 2.299,0.866 0.645,1.908 0.667,2.69 0.13,4.925 -0.047,0.197 -0.09,0.39 -0.129,0.582 l -7.469,1.521 c -1.208,-2.957 -2.818,-5.092 -5.453,-7.506"
           style="fill:#14b4ec;fill-opacity:1;fill-rule:nonzero;stroke:none"
           id="path64973"
           inkscape:connector-curvature="0" /><path
           d="m 456.238,324.12 c -0.209,0.378 -0.432,0.752 -0.673,1.122 -2.183,3.371 -4.874,4.711 -8.47,4.221 -2.955,-0.405 -4.391,-1.215 -6.947,-3.922 -2.307,-2.45 -3.472,-5.973 -3.782,-11.456 -0.008,-0.125 -0.013,-0.247 -0.021,-0.365 l 11.265,-5.907 z"
           style="fill:#df5e00;fill-opacity:1;fill-rule:nonzero;stroke:none"
           id="path64975"
           inkscape:connector-curvature="0" /><path
           d="m 402.664,180.838 c -0.889,2.212 -2.589,6.766 -3.776,10.12 -1.4,3.944 -2.283,6.261 -3.819,9.687 l -11.085,-8.978 c 1.166,-2.478 1.943,-4.272 1.944,-4.548 0.003,-0.433 0.205,-1.002 0.45,-1.272 0.186,-0.202 0.633,-1.152 1.1,-2.316 l 15.36,-3.128 c -0.056,0.14 -0.113,0.284 -0.174,0.435"
           style="fill:#67d7ef;fill-opacity:1;fill-rule:nonzero;stroke:none"
           id="path64977"
           inkscape:connector-curvature="0" /><path
           d="m 429.065,180.038 c -0.443,-1.802 -0.911,-3.326 -1.462,-4.679 l 7.469,-1.521 c -0.691,3.35 -0.172,6.131 2.687,15.348 0.181,0.584 0.367,1.187 0.554,1.801 l -6.895,5.561 c -0.74,-6.656 -1.73,-13.986 -2.353,-16.51"
           style="fill:#67d7ef;fill-opacity:1;fill-rule:nonzero;stroke:none"
           id="path64979"
           inkscape:connector-curvature="0" /><path
           d="m 400.448,285.123 c -1.414,4.241 -3.407,7.69 -5.936,10.225 -0.729,0.732 -3.257,2.622 -5.613,4.211 -1.901,1.275 -3.874,2.669 -4.912,3.461 l 2.897,-24.422 z"
           style="fill:#e88200;fill-opacity:1;fill-rule:nonzero;stroke:none"
           id="path64981"
           inkscape:connector-curvature="0" /><path
           d="m 383.465,314.378 c -0.239,0.147 -0.571,1.362 -0.735,2.697 -0.135,1.105 -0.406,2.181 -0.788,3.195 l 1.172,-9.889 c 0.883,1.992 1.048,3.566 0.351,3.997"
           style="fill:#e88200;fill-opacity:1;fill-rule:nonzero;stroke:none"
           id="path64983"
           inkscape:connector-curvature="0" /><path
           d="m 436.345,313.72 c -0.214,-3.866 -0.135,-4.14 1.077,-5.353 0.864,-0.862 1.877,-1.312 2.983,-1.323 0.92,-0.011 2.119,-0.349 2.659,-0.76 0.165,-0.124 0.39,-0.242 0.65,-0.346 l 3.896,1.875 z"
           style="fill:#e88200;fill-opacity:1;fill-rule:nonzero;stroke:none"
           id="path64985"
           inkscape:connector-curvature="0" /><path
           d="m 388.066,226.368 c 1.062,3.169 1.284,3.462 3.26,4.217 1.444,0.551 2.287,1.249 2.639,2.184 0.581,1.542 1.461,9.128 2.069,17.786 l 0.171,2.45 -9.321,25.593 -26.978,-40.913 c 0.172,-1.823 0.313,-3.382 0.386,-4.303 0.157,-2.014 0.262,-3.36 0.413,-4.263 l 26.006,-8.242 c 0.126,1.423 0.57,3.145 1.355,5.491"
           style="fill:#dcf07c;fill-opacity:1;fill-rule:nonzero;stroke:none"
           id="path64987"
           inkscape:connector-curvature="0" /><path
           d="m 387.013,164.585 -0.323,0.658 c -0.098,-0.29 0.008,-0.508 0.323,-0.658"
           style="fill:#31bded;fill-opacity:1;fill-rule:nonzero;stroke:none"
           id="path64989"
           inkscape:connector-curvature="0" /><path
           d="m 360.771,161.79 c 2.417,0.619 2.789,1.109 2.796,3.743 0.006,1.52 0.319,2.269 1.267,3.045 0.61,0.504 1.016,1.05 1.686,3.151 l -7.522,-10.39 c 0.7,0.18 1.33,0.34 1.773,0.451"
           style="fill:#31bded;fill-opacity:1;fill-rule:nonzero;stroke:none"
           id="path64991"
           inkscape:connector-curvature="0" /><path
           d="m 353.275,168.348 c 1.56,0 -0.562,-2.133 -4.184,-4.199 -3.721,-2.123 -4.765,-3.569 -2.916,-4.042 2.092,-0.535 6.698,-0.348 9.527,0.383 1.008,0.261 2.236,0.577 3.296,0.849 l 7.522,10.39 c 0.531,1.666 1.23,4.309 2.329,8.682 l -16.943,-11.55 c 0.469,-0.295 1.044,-0.513 1.369,-0.513"
           style="fill:#8bebdb;fill-opacity:1;fill-rule:nonzero;stroke:none"
           id="path64993"
           inkscape:connector-curvature="0" /><path
           d="m 386.884,278.598 -2.897,24.422 c -0.247,0.189 -0.443,0.345 -0.57,0.455 -0.658,0.568 -1.364,1.042 -1.573,1.042 -1.089,0 -0.859,1.93 0.52,4.379 0.29,0.513 0.54,1.011 0.75,1.485 l -1.172,9.889 c -0.757,2.012 -1.963,3.778 -3.484,5.028 -1.542,1.272 -2.367,1.57 -4.345,1.57 -1.298,0 -2.593,-0.244 -3.815,-0.684 l -7.089,-14.012 c 0.378,-2.957 1.257,-5.804 2.492,-7.34 1.545,-1.925 1.565,-2.015 0.624,-2.713 -1.975,-1.47 -8.381,-5.348 -8.521,-5.167 -0.077,0.106 -0.532,1.24 -1.012,2.536 l -4.34,-8.578 z"
           style="fill:#f38900;fill-opacity:1;fill-rule:nonzero;stroke:none"
           id="path64995"
           inkscape:connector-curvature="0" /><path
           d="m 391.156,208.992 c -1.536,3.214 -3.224,6.761 -3.751,7.875 -0.592,1.258 -0.833,2.455 -0.694,4.01 l -26.006,8.242 c 0.311,-1.853 0.822,-1.834 2.418,-1.834 h 2.065 l -0.36,-2.16 c -0.196,-1.186 -1.334,-5.226 -2.526,-8.988 l 10.468,-22.166 c 1.362,3.857 2.888,7.744 3.809,9.522 l 0.799,1.543 4.272,-8.561 c 0.86,-1.724 1.662,-3.379 2.334,-4.808 l 11.085,8.978 c -0.956,2.131 -2.165,4.693 -3.913,8.347"
           style="fill:#b7f3bb;fill-opacity:1;fill-rule:nonzero;stroke:none"
           id="path64997"
           inkscape:connector-curvature="0" /><path
           d="m 356.792,299.488 c -0.008,0.022 -0.016,0.043 -0.024,0.064 -1.08,2.922 -2.614,4.21 -5.805,4.898 -0.24,0.05 -0.474,0.105 -0.706,0.16 l 2.195,-13.7 z"
           style="fill:#f77700;fill-opacity:1;fill-rule:nonzero;stroke:none"
           id="path64999"
           inkscape:connector-curvature="0" /><path
           d="m 348.333,320.739 c 0,2.58 -1.035,6.786 -2.127,9.162 l 1.778,-11.102 c 0.225,0.67 0.349,1.328 0.349,1.94"
           style="fill:#f77700;fill-opacity:1;fill-rule:nonzero;stroke:none"
           id="path65001"
           inkscape:connector-curvature="0" /><path
           d="m 363.79,320.327 c -0.83,-1.967 -0.97,-5.119 -0.581,-8.155 l 7.089,14.012 c -2.9,-1.044 -5.386,-3.196 -6.508,-5.857"
           style="fill:#f77700;fill-opacity:1;fill-rule:nonzero;stroke:none"
           id="path65003"
           inkscape:connector-curvature="0" /><path
           d="m 352.452,290.91 1.864,-38.361 c 0.58,-0.309 1.311,-0.566 2.245,-0.846 1.062,-0.321 1.955,-0.625 1.98,-0.686 0.074,-0.165 0.855,-7.911 1.365,-13.332 l 26.978,40.913 z"
           style="fill:#f2da4a;fill-opacity:1;fill-rule:nonzero;stroke:none"
           id="path65005"
           inkscape:connector-curvature="0" /><path
           d="m 315.055,215.601 v -4.824 l 1.88,-0.614 c 1.032,-0.337 3.864,-0.963 6.294,-1.391 2.429,-0.42 4.481,-0.833 4.561,-0.911 0.078,-0.079 0.264,-1.401 0.413,-2.932 0.156,-1.604 0.421,-3.607 0.76,-5.817 l 12.51,-3.508 c 0.668,3.971 1.288,7.966 1.631,10.58 l 0.404,3.034 2.284,0.416 c 2.899,0.529 8.213,1.812 8.437,2.038 0.181,0.18 -0.388,12.293 -0.808,18.497 l -38.34,-12.571 c -0.018,-0.735 -0.026,-1.415 -0.026,-1.997"
           style="fill:#d8f890;fill-opacity:1;fill-rule:nonzero;stroke:none"
           id="path65007"
           inkscape:connector-curvature="0" /><path
           d="m 362.293,216.107 c -2.198,-6.923 -3.305,-11.145 -4.264,-16.261 -0.29,-1.536 -1,-4.964 -1.579,-7.621 -0.054,-0.252 -0.111,-0.513 -0.168,-0.775 l 14.352,-4.025 c 0.533,1.846 1.304,4.189 2.136,6.546 l -10.468,22.166 z"
           style="fill:#d8f890;fill-opacity:1;fill-rule:nonzero;stroke:none"
           id="path65009"
           inkscape:connector-curvature="0" /><path
           d="m 311.027,204.144 c -0.621,3.038 -1.201,7.342 -1.632,11.588 l -18.295,-6 z"
           style="fill:#d8f890;fill-opacity:1;fill-rule:nonzero;stroke:none"
           id="path65011"
           inkscape:connector-curvature="0" /><path
           d="m 309.197,163.068 c 0.149,0.239 0.326,0.449 0.541,0.624 0.965,0.788 1.046,1.498 1.184,10.498 0.085,5.308 0.429,11.252 0.766,13.21 0.656,3.778 0.397,11.967 -0.503,16.003 -0.053,0.237 -0.106,0.485 -0.158,0.741 l -19.927,5.588 z"
           style="fill:#c5f5c1;fill-opacity:1;fill-rule:nonzero;stroke:none"
           id="path65013"
           inkscape:connector-curvature="0" /><path
           d="m 331.293,186.511 c 1.452,-6.726 1.627,-11.009 0.574,-14.206 -1.132,-3.446 -1.424,-5.365 -1.064,-7.007 0.29,-1.319 0.562,-1.527 2.021,-1.527 2.06,0 4.48,2.495 5.398,5.556 l 0.602,2.015 3.175,-0.292 c 2.903,-0.276 3.202,-0.208 3.51,0.76 0.429,1.35 -0.609,3.315 -3.198,6.067 -2.578,2.741 -3.026,5.556 -1.874,11.81 0.336,1.838 0.693,3.875 1.036,5.917 l -12.51,3.508 c 0.601,-3.912 1.437,-8.47 2.33,-12.601"
           style="fill:#c5f5c1;fill-opacity:1;fill-rule:nonzero;stroke:none"
           id="path65015"
           inkscape:connector-curvature="0" /><path
           d="m 354.913,184.856 c -0.757,-3.973 -2.006,-8.865 -3.109,-12.168 -0.965,-2.887 -0.968,-3.057 -0.11,-3.682 0.067,-0.049 0.138,-0.098 0.212,-0.145 l 16.943,11.55 c 0.398,1.583 0.848,3.392 1.364,5.465 0.113,0.459 0.257,0.981 0.421,1.549 l -14.352,4.025 c -0.537,-2.492 -1.126,-5.325 -1.369,-6.594"
           style="fill:#c5f5c1;fill-opacity:1;fill-rule:nonzero;stroke:none"
           id="path65017"
           inkscape:connector-curvature="0" /><path
           d="m 323.01,296.196 c -1.038,-2.627 -1.24,-6.133 -0.625,-10.587 1.275,-9.218 1.003,-11.729 -1.71,-15.822 -1.934,-2.909 -1.954,-4.035 -0.108,-6.552 l 1.019,-1.389 -2.133,-9.788 c -0.475,-2.184 -0.96,-4.508 -1.389,-6.648 l 34.388,45.5 z"
           style="fill:#ffd100;fill-opacity:1;fill-rule:nonzero;stroke:none"
           id="path65019"
           inkscape:connector-curvature="0" /><path
           d="m 314.871,241.186 c -0.951,6.475 -0.749,12.819 0.603,18.11 0.677,2.651 1.587,6.54 2.014,8.634 0.431,2.094 1.258,6.101 1.841,8.9 1.173,5.634 1.374,12.434 0.489,16.609 -0.25,1.179 -0.641,2.402 -1.104,3.528 l -19.499,3.501 c -0.126,-0.228 -0.264,-0.47 -0.42,-0.736 -0.697,-1.193 -1.702,-3.861 -2.233,-5.932 -0.727,-2.843 -6.812,-16.312 -7.988,-17.685 -0.093,-0.108 -1.238,0.837 -2.541,2.105 -1.522,1.48 -3.293,2.605 -4.948,3.14 -2.477,0.8 -2.628,0.788 -3.957,-0.191 -1.021,-0.758 -1.391,-0.921 -2.466,-0.615 l 0.337,-1.45 0.032,-0.012 -0.007,-0.101 1.604,-6.908 c 0.015,0.037 0.029,0.073 0.044,0.113 0.574,1.509 1.141,1.661 2.066,0.547 0.416,-0.501 1.35,-0.738 2.606,-0.665 2.802,0.17 3.251,-0.489 2.637,-3.878 -0.434,-2.391 -0.386,-2.921 0.332,-3.568 0.78,-0.709 0.757,-1.243 -0.318,-7.497 -0.474,-2.766 -1.086,-6.781 -1.548,-10.122 l 3.317,-14.295 c 0.579,-0.334 1.23,-0.696 1.96,-1.099 0.099,-0.055 0.841,-7.058 1.488,-13.754 l 1.888,-8.133 z"
           style="fill:#ffd100;fill-opacity:1;fill-rule:nonzero;stroke:none"
           id="path65021"
           inkscape:connector-curvature="0" /><path
           d="m 352.251,278.151 c -0.099,-3.432 -0.211,-3.793 -1.309,-4.198 -1.027,-0.377 -1.145,-0.309 -0.825,0.45 0.206,0.496 0.797,2.381 1.309,4.2 l 0.935,3.303 z M 318.064,245.41 c -0.629,-3.134 -1.14,-5.874 -1.333,-7.205 l -0.59,-4.063 -0.904,4.829 c -0.138,0.739 -0.258,1.478 -0.366,2.215 l -23.771,-31.454 18.295,6 c -0.75,7.379 -1.054,14.58 -0.358,14.638 0.718,0.057 2.988,0.371 4.987,0.687 l 1.891,0.303 -0.431,-5.464 c -0.184,-2.352 -0.342,-5.685 -0.403,-8.298 l 38.34,12.571 c -0.117,1.732 -0.223,3.004 -0.298,3.427 -0.151,0.85 -0.47,3.951 -0.712,6.889 -0.678,8.257 -2.025,19.424 -2.529,20.927 -0.35,1.059 -0.274,1.43 0.343,1.666 0.436,0.169 0.841,0.242 0.898,0.163 0.059,-0.072 0.346,-2.178 0.636,-4.666 0.442,-3.751 0.843,-5.114 2.557,-6.026 l -1.864,38.361 z"
           style="fill:#f9ed2d;fill-opacity:1;fill-rule:nonzero;stroke:none"
           id="path65023"
           inkscape:connector-curvature="0" /><path
           d="m 315.87,301.336 c -0.574,0.344 -1.505,1.532 -2.069,2.635 -0.562,1.103 -1.655,2.308 -2.425,2.679 -1.944,0.935 -2.919,3.974 -2.192,6.85 0.843,3.36 0.677,5.91 -0.454,6.879 -0.027,0.023 -0.054,0.049 -0.082,0.077 l -17.984,-6.549 c 0.054,-0.221 0.112,-0.454 0.176,-0.705 1.409,-5.556 5.276,-10.211 8.479,-10.211 0.943,0 0.942,-0.623 -0.104,-2.523 l 19.499,-3.501 c -0.853,2.079 -1.947,3.829 -2.844,4.369"
           style="fill:#fd9d00;fill-opacity:1;fill-rule:nonzero;stroke:none"
           id="path65025"
           inkscape:connector-curvature="0" /><path
           d="m 350.257,304.61 c -3.746,0.898 -6.468,2.371 -7.504,4.078 -1.467,2.398 -1.298,3.062 1.238,4.846 1.847,1.299 3.344,3.333 3.993,5.265 l -1.778,11.102 c -0.292,0.635 -0.588,1.141 -0.869,1.448 -0.682,0.741 -1.295,1.324 -1.893,1.776 l -16.672,-6.071 c -0.865,-1.916 -1.232,-4.3 -0.713,-5.786 0.293,-0.839 0.387,-2.1 0.213,-2.803 -0.239,-0.946 0,-1.588 0.94,-2.527 0.692,-0.693 1.531,-1.261 1.861,-1.261 0.329,0 1.48,-0.862 2.561,-1.909 1.6,-1.554 1.964,-2.262 1.964,-3.832 0.003,-2.602 -1.061,-4.486 -3.395,-6.023 -1.066,-0.699 -2.783,-1.825 -3.815,-2.494 -1.534,-0.997 -2.658,-2.398 -3.378,-4.223 l 29.442,-5.286 z"
           style="fill:#fd9d00;fill-opacity:1;fill-rule:nonzero;stroke:none"
           id="path65027"
           inkscape:connector-curvature="0" /><path
           d="m 307.188,323.282 c -0.642,2.382 -2.01,3.856 -4.75,5.112 -2.338,1.069 -4.903,0.659 -7.962,-1.272 -2.44,-1.538 -2.804,-2.196 -3.764,-6.795 -0.64,-3.065 -0.68,-3.823 -0.048,-6.42 l 17.984,6.549 c -0.529,0.52 -1.171,1.751 -1.46,2.826"
           style="fill:#ff9300;fill-opacity:1;fill-rule:nonzero;stroke:none"
           id="path65029"
           inkscape:connector-curvature="0" /><path
           d="m 339.151,334.49 c -3.862,0 -6.614,-1.306 -10.816,-5.134 -0.609,-0.554 -1.145,-1.374 -1.563,-2.302 l 16.672,6.071 c -1.325,1.004 -2.57,1.365 -4.293,1.365"
           style="fill:#ff9300;fill-opacity:1;fill-rule:nonzero;stroke:none"
           id="path65031"
           inkscape:connector-curvature="0" /><path
           d="m 290.504,204.162 c 0.141,-1.275 0.276,-2.4 0.384,-3.162 0.267,-1.892 0.757,-6.985 1.083,-11.313 0.495,-6.541 0.779,-8.157 1.677,-9.524 0.594,-0.907 1.253,-1.649 1.464,-1.649 1.072,-0.012 0.14,-2.275 -1.653,-4.014 -1.322,-1.284 -2.031,-2.42 -2.031,-3.265 0,-1.416 -1.723,-2.849 -4.883,-4.105 l -0.446,-4.179 c 1.054,-0.048 2.353,-0.015 3.933,0.089 5.088,0.338 5.64,-0.151 2.031,-1.807 -4.386,-2.015 -4.699,-2.201 -4.699,-2.797 0,-0.327 0.107,-0.699 0.239,-0.827 0.33,-0.333 11.792,-0.102 15.915,0.321 4.478,0.455 5.184,0.878 5.184,3.111 0,0.829 0.168,1.502 0.495,2.027 L 291.1,209.732 Z"
           style="fill:#cbf387;fill-opacity:1;fill-rule:nonzero;stroke:none"
           id="path65033"
           inkscape:connector-curvature="0" /><path
           d="m 274.787,275.659 c -0.198,-2.748 -0.082,-3.575 0.568,-4.115 0.679,-0.56 0.869,-0.497 1.273,0.539 l -1.604,6.908 z"
           style="fill:#ffce00;fill-opacity:1;fill-rule:nonzero;stroke:none"
           id="path65035"
           inkscape:connector-curvature="0" /><path
           d="m 222.167,229.107 c 0.555,0.515 1.261,0.93 2.358,1.505 3.473,1.819 3.98,2.87 4.647,9.631 0.118,1.191 0.27,2.57 0.393,3.573 l -9,-14.258 z"
           style="fill:#ffce00;fill-opacity:1;fill-rule:nonzero;stroke:none"
           id="path65037"
           inkscape:connector-curvature="0" /><path
           d="m 273.681,280.876 c -1.61,0.569 -2.069,0.586 -2.069,0.091 0,-0.35 0.771,-0.918 1.711,-1.255 l 1.676,-0.608 -0.337,1.45 c -0.275,0.079 -0.592,0.185 -0.981,0.322"
           style="fill:#ffce00;fill-opacity:1;fill-rule:nonzero;stroke:none"
           id="path65039"
           inkscape:connector-curvature="0" /><path
           d="m 289.212,217.865 c 0.271,-2.804 0.524,-5.555 0.708,-7.719 0.002,-0.027 0.005,-0.055 0.006,-0.083 l 1.174,-0.331 z"
           style="fill:#ffce00;fill-opacity:1;fill-rule:nonzero;stroke:none"
           id="path65041"
           inkscape:connector-curvature="0" /><path
           d="m 282.04,243.924 c -0.925,-7.502 -0.947,-8.503 3.724,-11.206 l -3.317,14.295 c -0.157,-1.132 -0.297,-2.187 -0.407,-3.089"
           style="fill:#ffce00;fill-opacity:1;fill-rule:nonzero;stroke:none"
           id="path65043"
           inkscape:connector-curvature="0" /><path
           d="m 222.22,178.333 c 0.217,-2.167 0.425,-2.527 1.719,-2.978 1.174,-0.411 1.355,-0.653 0.887,-1.214 -0.323,-0.39 -0.464,-1.334 -0.315,-2.107 0.223,-1.159 -0.113,-1.762 -1.981,-3.556 -1.238,-1.189 -2.606,-2.163 -3.043,-2.163 -0.481,0 -0.72,-0.342 -0.611,-0.888 0.147,-0.715 0.615,-0.857 2.452,-0.721 2.565,0.19 6.355,1.273 9.417,2.69 1.137,0.524 2.507,0.963 3.048,0.968 0.54,0.012 1.415,0.344 1.945,0.744 0.799,0.608 0.906,1.131 0.633,3.107 -0.197,1.44 -0.11,2.639 0.222,3.039 0.406,0.49 -0.006,2.161 -1.573,6.405 -1.166,3.158 -2.916,7.914 -3.886,10.571 -1.867,5.1 -2.264,6.063 -4.495,10.925 -2.351,5.122 -6.136,14.083 -7.084,16.774 l -0.855,2.421 -5.949,-22.99 c 3.82,-7.262 9.264,-18.972 9.469,-21.027"
           style="fill:#f0d03c;fill-opacity:1;fill-rule:nonzero;stroke:none"
           id="path65045"
           inkscape:connector-curvature="0" /><path
           d="m 218.839,222.886 1.321,2.915 c 0.535,1.177 0.923,1.962 1.357,2.563 l -0.952,1.194 z"
           style="fill:#f0d03c;fill-opacity:1;fill-rule:nonzero;stroke:none"
           id="path65047"
           inkscape:connector-curvature="0" /><path
           d="m 221.517,228.364 c 0.2,0.281 0.412,0.522 0.65,0.743 l -1.602,0.451 z"
           style="fill:#f6e63a;fill-opacity:1;fill-rule:nonzero;stroke:none"
           id="path65049"
           inkscape:connector-curvature="0" /><path
           d="m 289.926,210.063 c 0.158,-1.855 0.374,-4.039 0.578,-5.901 l 0.596,5.57 z"
           style="fill:#f6e63a;fill-opacity:1;fill-rule:nonzero;stroke:none"
           id="path65051"
           inkscape:connector-curvature="0" /><path
           d="m 284.158,166.299 c -1.531,-0.467 -1.902,-0.811 -1.779,-1.65 0.156,-1.05 1.267,-1.589 3.72,-1.698 l 0.446,4.179 c -0.721,-0.287 -1.519,-0.565 -2.387,-0.831"
           style="fill:#f6e63a;fill-opacity:1;fill-rule:nonzero;stroke:none"
           id="path65053"
           inkscape:connector-curvature="0" /><path
           d="m 220.565,229.558 9,14.258 c 0.05,0.411 0.095,0.759 0.13,1.003 0.124,0.838 0.271,3.861 0.326,6.721 l 0.102,5.201 3.532,3.545 3.532,3.547 -0.343,3.449 c -0.656,6.592 -2.435,15.294 -4.241,20.726 -0.691,2.076 -2.711,5.614 -4.241,7.655 L 181.75,283.814 Z"
           style="fill:#feb200;fill-opacity:1;fill-rule:nonzero;stroke:none"
           id="path65055"
           inkscape:connector-curvature="0" /><path
           d="m 228.362,295.663 c -0.552,0.735 -1.041,1.278 -1.38,1.486 -0.456,0.282 -2.38,1.356 -4.281,2.392 -5.056,2.758 -9.518,6.023 -9.518,6.962 0,0.451 0.6,1.948 1.338,3.327 1.322,2.488 1.328,2.55 0.68,6.857 -1.142,7.57 -3.107,10.26 -8.023,10.997 -2.373,0.358 -4.852,-0.27 -6.822,-1.535 l -4.075,-9.274 c -0.093,-2.682 0.006,-5.683 0.328,-7.394 0.195,-1.041 1.163,-2.949 2.148,-4.238 0.988,-1.295 1.72,-2.42 1.633,-2.505 -0.293,-0.281 -5.933,-2.791 -6.277,-2.791 -1.204,0 -3.616,-2.624 -4.79,-5.208 l -1.365,-3.005 -1.017,3.889 -5.191,-11.809 z"
           style="fill:#fe9400;fill-opacity:1;fill-rule:nonzero;stroke:none"
           id="path65057"
           inkscape:connector-curvature="0" /><path
           d="m 193.942,229.703 0.188,-1.651 1.906,0.146 c 2.75,0.213 3.047,1.997 -3.662,-21.744 -1.981,-7.013 -3.425,-13.666 -5.873,-27.074 -0.381,-2.092 -0.942,-4.53 -1.349,-5.917 l 8.211,-11.386 c 2.833,0.467 3.562,1.325 3.562,4.025 0,1.627 0.282,2.5 1.016,3.129 0.569,0.485 1.016,1.498 1.016,2.297 0,0.787 0.467,3.422 1.041,5.859 0.574,2.437 1.498,6.373 2.054,8.748 2.705,11.533 5.511,19.053 7.107,19.053 0.37,0 1.804,-2.427 3.592,-5.828 l 5.949,22.99 -0.045,0.129 0.184,0.407 1.726,6.672 z"
           style="fill:#fb9b00;fill-opacity:1;fill-rule:nonzero;stroke:none"
           id="path65059"
           inkscape:connector-curvature="0" /><path
           d="m 167.405,198.071 c 0.084,0.45 0.171,0.914 0.262,1.398 1.019,5.381 1.957,10.238 2.08,10.795 0.172,0.766 1.21,1.323 4.176,2.24 2.171,0.676 4.945,1.684 6.164,2.247 l 2.217,1.018 -0.295,2.584 c -0.415,3.669 -0.79,7.495 -1.119,11.422 l -36.493,0.2 z"
           style="fill:#fb9b00;fill-opacity:1;fill-rule:nonzero;stroke:none"
           id="path65061"
           inkscape:connector-curvature="0" /><path
           d="m 181.75,283.814 -1.6,-2.307 c 0.154,-1.685 -0.214,-3.959 -0.921,-4.599 -1.222,-1.109 -2.258,-1.081 -1.937,0.044 0.073,0.257 0.143,0.502 0.212,0.741 l -33.107,-47.718 36.493,-0.2 c -0.274,3.259 -0.516,6.589 -0.724,9.961 -0.704,11.415 -1.447,18.311 -2.344,21.784 -0.426,1.642 -0.654,3.292 -0.51,3.669 0.146,0.377 1.306,0.952 2.581,1.272 1.272,0.321 2.437,0.783 2.589,1.03 0.855,1.379 1.216,-0.247 1.345,-6.034 l 0.141,-6.478 3.937,-1.942 3.938,-1.942 0.002,-3.901 c 0.003,-2.143 0.361,-5.961 0.8,-8.477 0.436,-2.51 0.951,-5.944 1.139,-7.62 l 0.158,-1.394 26.623,-0.145 z"
           style="fill:#ffa300;fill-opacity:1;fill-rule:nonzero;stroke:none"
           id="path65063"
           inkscape:connector-curvature="0" /><path
           d="m 196.858,321.893 c -0.306,-0.902 -0.504,-2.857 -0.577,-5.018 l 4.075,9.274 c -1.631,-1.047 -2.915,-2.53 -3.498,-4.256"
           style="fill:#fd7700;fill-opacity:1;fill-rule:nonzero;stroke:none"
           id="path65065"
           inkscape:connector-curvature="0" /><path
           d="m 186.941,295.623 -0.331,1.262 c -0.897,3.422 -1.885,5.898 -2.949,7.379 -1.739,2.42 -2.333,2.785 -5.029,3.124 -0.976,0.123 -2.691,0.596 -3.811,1.058 -5.063,2.071 -6.276,5.364 -3.031,8.212 0.988,0.867 1.962,1.575 2.165,1.575 0.714,0 1.82,2.314 2.161,4.526 0.599,3.867 -1.734,10.419 -4.655,13.058 -0.85,0.772 -1.849,0.964 -4.99,0.964 -4.177,0 -5.564,-0.609 -9.554,-4.217 -2.691,-2.431 -4.064,-6.208 -3.116,-8.578 0.315,-0.788 0.535,-2.285 0.49,-3.332 -0.073,-1.587 0.148,-2.043 1.365,-2.792 0.799,-0.495 2.468,-1.767 3.706,-2.831 2.077,-1.79 2.246,-2.116 2.198,-4.272 -0.032,-1.509 -0.131,-2.251 -1.108,-3.069 l 21.298,-23.876 z"
           style="fill:#fd7700;fill-opacity:1;fill-rule:nonzero;stroke:none"
           id="path65067"
           inkscape:connector-curvature="0" /><path
           d="m 184.953,172.834 c -1.022,-2.898 -0.935,-3.468 0.54,-3.468 0.698,0 1.27,-0.202 1.27,-0.45 0,-0.546 -3.527,-3.45 -6.606,-5.437 -3.357,-2.162 -3.605,-2.831 -1.269,-3.416 v 0.004 c 1.508,-0.377 6.253,0.085 9.143,0.896 1.399,0.388 3.639,0.866 4.979,1.058 0.122,0.018 0.239,0.037 0.353,0.056 l -8.211,11.386 c -0.071,-0.243 -0.139,-0.458 -0.199,-0.629"
           style="fill:#f56500;fill-opacity:1;fill-rule:nonzero;stroke:none"
           id="path65069"
           inkscape:connector-curvature="0" /><path
           d="m 143.445,227.6 c -0.136,-1.54 -0.28,-3.112 -0.401,-4.378 -0.253,-2.652 -0.464,-6.023 -0.472,-7.481 -0.018,-3.354 0.771,-3.939 6.937,-5.156 l 4.481,-0.878 0.317,-2.769 c 0.175,-1.52 0.563,-4.024 0.861,-5.561 1.126,-5.809 2.674,-14.623 3.217,-18.327 0.47,-3.214 0.428,-4.385 -0.264,-7.144 -0.94,-3.754 -1.081,-8.172 -0.301,-9.624 1.604,-2.994 5.547,1.041 7.119,7.289 0.567,2.252 0.62,2.296 2.021,1.813 2.258,-0.788 4.278,-0.365 4.464,0.929 0.186,1.316 -1.247,4.254 -3.385,6.934 -2.338,2.936 -2.48,4.861 -0.634,14.824 l -23.008,31.904 z"
           style="fill:#f56500;fill-opacity:1;fill-rule:nonzero;stroke:none"
           id="path65071"
           inkscape:connector-curvature="0" /><path
           d="m 177.504,277.693 c 1.278,4.442 1.892,5.901 2.23,5.362 0.223,-0.348 0.357,-0.906 0.416,-1.548 l 1.6,2.307 -30.8,-3.197 0.425,-3.828 -1.869,-3.455 c -2.077,-3.85 -2.207,-4.633 -1.109,-6.737 0.96,-1.841 0.963,-3.637 0.011,-7.521 -1.272,-5.201 -4.238,-22.661 -4.578,-26.961 -0.021,-0.253 -0.043,-0.532 -0.067,-0.826 l 0.634,-1.314 z"
           style="fill:#ff8800;fill-opacity:1;fill-rule:nonzero;stroke:none"
           id="path65073"
           inkscape:connector-curvature="0" /><path
           d="m 160.452,307.69 c -0.751,-0.627 -2.019,-1.298 -4.174,-2.397 -3.721,-1.891 -4.687,-2.819 -5.517,-5.296 -0.751,-2.234 -0.743,-10.999 0.017,-17.831 l 0.172,-1.549 30.8,3.197 z"
           style="fill:#fd7400;fill-opacity:1;fill-rule:nonzero;stroke:none"
           id="path65075"
           inkscape:connector-curvature="0" /><path
           d="m 73.373,239.112 7.382,-0.949 c -0.235,2.508 -0.118,2.737 0.787,2.975 1.083,0.283 1.256,0.877 0.8,5.406 l -9.006,-7.143 c 0.038,-0.077 0.05,-0.17 0.037,-0.289"
           style="fill:#ff7200;fill-opacity:1;fill-rule:nonzero;stroke:none"
           id="path65077"
           inkscape:connector-curvature="0" /><path
           d="m 143.763,231.289 c -0.032,-0.38 -0.066,-0.788 -0.103,-1.219 l 0.737,-0.095 z"
           style="fill:#ff7200;fill-opacity:1;fill-rule:nonzero;stroke:none"
           id="path65079"
           inkscape:connector-curvature="0" /><path
           d="m 73.266,238.688 4.844,-9.544 c 2.431,2.341 3.107,4.401 2.718,8.279 -0.027,0.267 -0.051,0.512 -0.073,0.74 l -7.382,0.949 c -0.013,-0.114 -0.049,-0.252 -0.107,-0.424"
           style="fill:#fc6300;fill-opacity:1;fill-rule:nonzero;stroke:none"
           id="path65081"
           inkscape:connector-curvature="0" /><path
           d="m 144.397,229.975 -0.737,0.095 c -0.066,-0.776 -0.139,-1.618 -0.215,-2.47 z"
           style="fill:#fc6300;fill-opacity:1;fill-rule:nonzero;stroke:none"
           id="path65083"
           inkscape:connector-curvature="0" /><path
           d="m 73.025,238.061 -0.021,-9.4 c 0.577,-0.259 1.3,-0.496 1.913,-0.609 1.422,-0.271 1.959,-0.091 3.153,1.052 0.013,0.013 0.026,0.027 0.04,0.04 l -4.844,9.544 c -0.058,-0.172 -0.139,-0.378 -0.241,-0.627"
           style="fill:#f23700;fill-opacity:1;fill-rule:nonzero;stroke:none"
           id="path65085"
           inkscape:connector-curvature="0" /><path
           d="m 73.336,239.401 9.006,7.143 c -0.061,0.618 -0.135,1.308 -0.219,2.08 -0.26,2.375 -0.608,6.378 -0.78,8.894 -0.54,8.06 -1.289,16.171 -1.784,19.306 -0.114,0.73 -0.286,1.944 -0.48,3.369 l -5.982,-40.569 c 0.116,-0.063 0.195,-0.133 0.239,-0.223"
           style="fill:#fa6800;fill-opacity:1;fill-rule:nonzero;stroke:none"
           id="path65087"
           inkscape:connector-curvature="0" /><path
           d="m 51.717,169.936 c 0.692,-0.531 0.908,-1.414 0.908,-3.694 0,-2.814 0.096,-3.051 1.604,-3.968 1.279,-0.779 4.947,-1.798 8.237,-2.364 l -11.427,16.639 c -0.138,-5.513 0.035,-6.12 0.678,-6.613"
           style="fill:#e21c00;fill-opacity:1;fill-rule:nonzero;stroke:none"
           id="path65089"
           inkscape:connector-curvature="0" /><path
           d="m 31.915,185.876 c 0.343,-3.074 0.636,-7.413 0.65,-9.643 0.022,-3.872 0.084,-4.086 1.404,-4.829 1.556,-0.867 1.739,-1.621 0.619,-2.55 -0.419,-0.349 -0.76,-1.149 -0.76,-1.779 0,-1.322 -0.647,-1.941 -3.625,-3.467 -2.623,-1.345 -3.579,-2.673 -2.474,-3.433 1.248,-0.861 8.001,-0.084 12.958,1.486 l 4.573,1.446 0.158,2.489 c 0.09,1.367 0.515,2.882 0.951,3.359 0.473,0.524 0.673,1.34 0.499,2.038 -0.165,0.66 -0.44,6.298 -0.671,12.606 l -15.608,22.726 c 0.128,-7.675 0.521,-13.272 1.326,-20.449"
           style="fill:#e21c00;fill-opacity:1;fill-rule:nonzero;stroke:none"
           id="path65091"
           inkscape:connector-curvature="0" /><path
           d="m 30.575,219.535 c -0.048,-5.189 -0.048,-9.449 0.014,-13.21 l 15.608,-22.726 c -0.235,6.393 -0.422,13.475 -0.399,16.759 0.044,6.749 1.843,19.497 2.837,20.111 0.239,0.152 0.436,-0.337 0.436,-1.08 0,-0.749 0.312,-2.646 0.695,-4.228 1.999,-8.235 2.179,-12.045 1.497,-31.571 -0.104,-2.968 -0.18,-5.26 -0.224,-7.041 L 62.466,159.91 c 0.918,-0.159 1.808,-0.281 2.607,-0.354 1.12,-0.102 2.44,-0.22 2.939,-0.271 1.961,-0.185 1.463,1.469 -1.36,4.521 -2.848,3.073 -3.467,4.637 -2.145,5.403 0.498,0.292 0.794,2.032 1.011,5.994 0.171,3.08 0.552,8.336 0.847,11.692 0.296,3.348 0.546,14.442 0.554,24.641 0.017,21.261 0.279,26.928 1.245,26.928 0.106,0 0.217,0.041 0.327,0.106 l -37.786,-4.888 z"
           style="fill:#f24600;fill-opacity:1;fill-rule:nonzero;stroke:none"
           id="path65093"
           inkscape:connector-curvature="0" /><path
           d="m 72.667,237.197 c -0.609,-1.451 -0.671,-2.245 -0.268,-3.399 0.414,-1.188 0.349,-1.774 -0.295,-2.758 -0.766,-1.171 -0.758,-1.301 0.14,-1.959 0.184,-0.136 0.452,-0.281 0.76,-0.42 l 0.021,9.4 c -0.099,-0.244 -0.219,-0.528 -0.358,-0.864"
           style="fill:#f24600;fill-opacity:1;fill-rule:nonzero;stroke:none"
           id="path65095"
           inkscape:connector-curvature="0" /><path
           d="m 27.969,278.085 c 0.368,0.304 0.78,1.288 0.918,2.188 0.134,0.896 0.849,3.001 1.59,4.678 1.272,2.894 1.325,2.945 1.038,1.02 -0.166,-1.121 -0.653,-3.862 -1.081,-6.096 -1.008,-5.246 -1.241,-5.641 -2.29,-3.817 -0.69,1.205 -0.721,1.57 -0.175,2.027 m -4.19,-7.835 54.781,13.899 c -0.046,0.358 -0.09,0.714 -0.135,1.067 l -43.013,26.042 c -0.279,-0.123 -0.572,-0.255 -0.872,-0.392 -1.525,-0.698 -2.898,-1.272 -3.047,-1.272 -0.836,0 -6.094,-2.747 -6.632,-3.468 -0.348,-0.466 -0.998,-1.952 -1.446,-3.297 -0.444,-1.346 -1.576,-4.093 -2.513,-6.097 -1.956,-4.195 -3.609,-8.256 -4.786,-11.642 z"
           style="fill:#e94c00;fill-opacity:1;fill-rule:nonzero;stroke:none"
           id="path65097"
           inkscape:connector-curvature="0" /><path
           d="m 78.3,286.224 c -0.427,3.495 -1.154,8.398 -1.609,10.896 -0.774,4.216 -1.002,4.718 -3.175,7.043 -1.989,2.128 -7.427,5.431 -8.935,5.431 -0.793,0 -6.651,3.169 -7.762,4.204 -1.472,1.357 -1.453,1.554 0.447,4.2 1.498,2.083 1.61,2.561 1.931,8.211 0.481,8.46 -0.507,11.292 -4.591,13.132 -2.459,1.109 -7.95,0.755 -9.815,-0.641 -1.203,-0.89 -3.344,-4.66 -3.342,-5.871 0,-0.344 -0.49,-1.547 -1.089,-2.679 -1.432,-2.708 -1.01,-5.972 1.112,-8.646 1.126,-1.413 1.501,-2.42 1.501,-4.025 0,-2.026 -0.141,-2.228 -2.576,-3.742 -1.416,-0.878 -2.688,-1.599 -2.826,-1.599 -0.113,0 -1.016,-0.372 -2.159,-0.88 l 43.013,-26.042 c -0.043,0.341 -0.084,0.678 -0.125,1.008"
           style="fill:#ed4100;fill-opacity:1;fill-rule:nonzero;stroke:none"
           id="path65099"
           inkscape:connector-curvature="0" /><path
           d="m 69.247,241.544 c 0.015,3.551 -0.351,10.585 -0.873,15.72 -0.788,7.751 -0.996,13.716 -0.472,13.716 0.262,0 0.475,-0.709 0.475,-1.575 0,-0.872 0.332,-3.101 0.737,-4.959 0.696,-3.185 1.715,-13.683 2.027,-20.866 0.121,-2.803 0.295,-3.32 1.23,-3.664 0.32,-0.118 0.56,-0.201 0.726,-0.292 l 5.982,40.569 c -0.165,1.22 -0.346,2.595 -0.519,3.956 L 23.779,270.25 Z"
           style="fill:#f55e00;fill-opacity:1;fill-rule:nonzero;stroke:none"
           id="path65101"
           inkscape:connector-curvature="0" /><path
           d="m 21.658,262.359 c 1.073,-1.786 1.968,-3.124 2.342,-3.412 0.428,-0.327 1.079,-0.485 1.442,-0.343 1.288,0.495 1.286,-0.874 -0.026,-8.523 -0.731,-4.255 -1.364,-9.083 -1.412,-10.733 -0.108,-3.788 0.77,-4.644 4.333,-4.216 l 2.385,0.281 -0.017,-1.731 37.786,4.888 c 0.262,0.156 0.508,0.469 0.623,0.834 0.086,0.269 0.128,1.036 0.133,2.14 L 23.779,270.25 Z"
           style="fill:#f15700;fill-opacity:1;fill-rule:nonzero;stroke:none"
           id="path65103"
           inkscape:connector-curvature="0" /><path
           d="m 16.116,285.09 c -1.587,-4.565 -2.308,-7.901 -1.732,-8.666 0.253,-0.337 1.106,-2.1 1.894,-3.917 1.16,-2.674 3.534,-7.074 5.38,-10.148 l 2.121,7.891 z"
           style="fill:#e24b00;fill-opacity:1;fill-rule:nonzero;stroke:none"
           id="path65105"
           inkscape:connector-curvature="0" /></g></g></g></svg>